<?xml version="1.0" encoding="UTF-8"?>
<svg xmlns:svg="http://www.w3.org/2000/svg" xmlns="http://www.w3.org/2000/svg" viewBox="0 0 1000 1000">
  <path transform="translate(-20000,0)" style="fill:#000000;fill-opacity:1;stroke:none" d="m 20256.343,122.76843 c -44.512,0.32116 -89.55,23.715 -124.531,66.84375 -93.282,115.00999 -113.156,325.38659 -53.781,487.25 a 30.003,30.003 0 0 0 1.125,2.75 30.003,30.003 0 0 0 0.03,0.0625 30.003,30.003 0 0 0 0.906,2.6875 c 30.159,78.95518 75.978,133.43915 132.875,152.84375 56.898,19.4046 120.319,-3.34881 166.344,-60.09375 93.282,-115.00999 113.156,-325.38659 53.781,-487.25 -29.687,-80.9317 -75.495,-137.01755 -132.812,-157.59375 -14.329,-5.14405 -29.1,-7.60705 -43.938,-7.5 z m -3.469,59.09375 c 0.777,-0.008 1.568,-0.0185 2.344,0 8.276,0.19691 16.507,1.90453 24.782,4.875 33.098,11.88187 70.96,51.50833 96.75,121.8125 51.577,140.60834 27.67,340.34692 -44.032,428.75 -35.368,43.6059 -67.772,52.22328 -100.406,41.09375 -32.634,-11.12953 -70.051,-49.09457 -96.156,-117.4375 a 30.003,30.003 0 0 0 -1,-2.34375 30.003,30.003 0 0 0 -0.782,-2.4375 c -51.577,-140.60834 -27.67,-340.34692 44.032,-428.75 26.047,-32.11518 50.4,-45.30557 74.468,-45.5625 z"/>
</svg>
