<?xml version="1.0" encoding="UTF-8"?>
<svg xmlns:svg="http://www.w3.org/2000/svg" xmlns="http://www.w3.org/2000/svg" viewBox="0 0 1000 1000">
  <path transform="translate(-21000,0)" style="fill:#000000;fill-opacity:1;stroke:none" d="m 21143.812,122.36218 c -51.667,0 -103.752,17.06432 -143.688,52.5625 -39.935,35.49818 -66.312,89.9375 -66.312,157.4375 l 0,180 a 30.003,30.003 0 1 0 60,0 l 0,-180 c 0,-52.5 18.623,-88.09193 46.188,-112.59375 27.563,-24.50182 65.479,-37.40625 103.812,-37.40625 38.333,0 76.248,12.90443 103.812,37.40625 27.565,24.50182 46.188,60.09375 46.188,112.59375 a 30.003,30.003 0 1 0 60,0 c 0,-67.5 -26.377,-121.93932 -66.312,-157.4375 -39.937,-35.49818 -92.021,-52.5625 -143.688,-52.5625 z m 179.562,299.5625 a 30.003,30.003 0 0 0 -29.562,30.4375 l 0,180 c 0,52.5 -18.623,88.06068 -46.188,112.5625 -27.563,24.50182 -65.479,37.4375 -103.812,37.4375 -38.333,0 -76.248,-12.93568 -103.812,-37.4375 -27.565,-24.50182 -46.188,-60.0625 -46.188,-112.5625 a 30.003,30.003 0 1 0 -60,0 c 0,67.5 26.377,121.90807 66.312,157.40625 39.937,35.49818 92.021,52.59375 143.688,52.59375 51.667,0 103.752,-17.09557 143.688,-52.59375 39.935,-35.49818 66.312,-89.90625 66.312,-157.40625 l 0,-180 a 30.003,30.003 0 0 0 -30.438,-30.4375 z"/>
</svg>
