<?xml version="1.0" encoding="UTF-8"?>
<svg xmlns:svg="http://www.w3.org/2000/svg" xmlns="http://www.w3.org/2000/svg" viewBox="0 0 1000 1000">
  <path transform="translate(-21000,0)" style="fill:#000000;fill-opacity:1;stroke:none" d="m 21630.5,112.67468 c -35.321,0.1716 -71.101,8.25349 -103.312,24.5 -42.95,21.66201 -72.853,56.04344 -83.219,95.75 -10.367,39.70656 0.472,83.64927 30.937,117.625 a 30.003,30.003 0 0 0 0.719,0.75 30.003,30.003 0 0 0 0,0.0313 30.003,30.003 0 0 0 1.375,1.53125 c 16.297,17.45351 35.948,31.27011 57.594,41.34375 -6.95,3.22645 -13.768,6.82524 -20.438,10.8125 -95.727,57.22394 -123.078,179.14517 -57.437,265.90625 a 30.003,30.003 0 0 0 0.906,1.125 30.003,30.003 0 0 0 0.09,0.15625 30.003,30.003 0 0 0 1.281,1.6875 c 34.983,44.40526 86.386,71.02504 141,78.09375 l 0,51.5625 a 30.003,30.003 0 1 0 60,0 l 0,-51.65625 c 29.763,-3.96455 59.061,-13.80213 85.844,-29.8125 95.727,-57.22394 123.078,-179.14517 57.437,-265.90625 -20.842,-27.54897 -47.961,-48.52283 -78.312,-62.5 2.63,-1.1993 5.257,-2.44546 7.843,-3.75 42.95,-21.66201 72.853,-56.04344 83.219,-95.75 10.367,-39.70656 -0.472,-83.64927 -30.937,-117.625 -38.082,-42.46966 -95.726,-64.161 -154.594,-63.875 z m -30.5,63.8125 0,173.59375 c -31.881,-5.36571 -60.918,-18.65637 -79.125,-38.15625 a 30.003,30.003 0 0 0 -0.531,-0.53125 30.003,30.003 0 0 0 -0.782,-0.90625 c -18.847,-21.01914 -22.933,-41.83617 -17.562,-62.40625 5.371,-20.57008 21.84,-41.99032 52.219,-57.3125 14.121,-7.12217 29.708,-11.81054 45.781,-14.28125 z m 60,0.59375 c 32.668,5.52246 62.33,19.33837 80.438,39.53125 18.847,21.01914 22.933,41.83617 17.562,62.40625 -5.371,20.57008 -21.84,41.99032 -52.219,57.3125 -14.111,7.11718 -29.694,11.80184 -45.781,14.28125 l 0,-173.53125 z m -60,259.3125 0,254.09375 c -37.086,-6.61213 -71.321,-25.09069 -93.875,-53.71875 a 30.003,30.003 0 0 0 -0.625,-0.75 30.003,30.003 0 0 0 -0.938,-1.28125 c -45.312,-59.89189 -28.883,-136.81817 40.376,-178.21875 17.112,-10.22975 35.857,-16.83063 55.062,-20.125 z m 60,0.25 c 37.978,6.77921 72.947,25.99247 95.438,55.71875 45.312,59.89189 28.883,136.81817 -40.376,178.21875 -17.098,10.22107 -35.845,16.85249 -55.062,20.15625 l 0,-254.09375 z"/>
</svg>
