<?xml version="1.0" encoding="UTF-8"?>
<svg xmlns:svg="http://www.w3.org/2000/svg" xmlns="http://www.w3.org/2000/svg" viewBox="0 0 1000 1000">
  <path transform="translate(-22000,0)" style="fill:#000000;fill-opacity:1;stroke:none" d="m 22150,117.36218 c -44.375,0 -88.859,9.15748 -125.125,30.3125 -36.266,21.15502 -64.875,58.25893 -64.875,104.6875 a 30.003,30.003 0 1 0 60,0 c 0,-23.57143 11.391,-38.99877 35.125,-52.84375 23.734,-13.84498 59.25,-22.15625 94.875,-22.15625 35.625,0 71.141,8.31127 94.875,22.15625 22.53,13.14247 33.807,27.80001 34.906,49.40625 l -152.406,533.4375 -137.375,0 a 30.003,30.003 0 1 0 0,60 l 153.906,0 a 30.003,30.003 0 0 0 11.719,0 l 194.375,0 a 30.003,30.003 0 1 0 0,-60 l -160.25,0 149.094,-521.78125 a 30.003,30.003 0 0 0 1.156,-8.21875 c 0,-46.42857 -28.609,-83.53248 -64.875,-104.6875 -36.266,-21.15502 -80.75,-30.3125 -125.125,-30.3125 z"/>
</svg>
