<?xml version="1.0" encoding="UTF-8"?>
<svg xmlns:svg="http://www.w3.org/2000/svg" xmlns="http://www.w3.org/2000/svg" viewBox="0 0 1000 1000">
  <path transform="translate(-23000,0)" style="fill:#000000;fill-opacity:1;stroke:none" d="m 23279.562,121.92468 a 30.003,30.003 0 0 0 -29.562,30.4375 l 0,172.84375 c -31.738,5.66969 -62.785,20.17649 -90,43.5625 -95.619,82.16585 -118.103,237.72997 -55.906,355.90625 a 30.003,30.003 0 0 0 1.094,1.9375 30.003,30.003 0 0 0 1.062,2.09375 c 31.584,57.62899 79.957,96.14512 133.906,108.96875 53.949,12.82363 112.666,-1.17797 159.844,-41.71875 95.619,-82.16585 118.103,-237.72997 55.906,-355.90625 -31.098,-59.08814 -79.582,-98.87655 -134.031,-112.5 -3.936,-0.98492 -7.892,-1.83152 -11.875,-2.53125 l 0,-172.65625 a 30.003,30.003 0 0 0 -30.438,-30.4375 z m -4.937,260.375 a 30.003,30.003 0 0 0 10.156,0.0625 c 7.549,0.38251 15.083,1.51129 22.531,3.375 35.967,8.99884 71.123,35.93131 95.5,82.25 48.757,92.63738 27.46,222.86185 -41.906,282.46875 -34.214,29.40072 -71.293,37.30148 -106.875,28.84375 -35.582,-8.45773 -70.475,-34.40416 -95.156,-79.4375 a 30.003,30.003 0 0 0 -0.75,-1.25 30.003,30.003 0 0 0 0,-0.0313 30.003,30.003 0 0 0 -0.937,-1.84375 c -48.757,-92.63738 -27.46,-222.86185 41.906,-282.46875 24.277,-20.86168 49.969,-30.90986 75.531,-31.96875 z"/>
</svg>
