<?xml version="1.0" encoding="UTF-8"?>
<svg xmlns:svg="http://www.w3.org/2000/svg" xmlns="http://www.w3.org/2000/svg" viewBox="0 0 1000 1000">
  <path transform="translate(-24000,0)" style="fill:#000000;fill-opacity:1;stroke:none" d="m 24992.062,122.36218 c -67.04,0.60753 -133.551,33.65723 -184,95.53125 a 30.003,30.003 0 1 0 46.5,37.90625 c 43.742,-53.64757 96.338,-76.07004 147.563,-73.21875 51.224,2.85129 103.044,31.41148 143.594,90.1875 14.898,21.59532 27.447,46.38879 37,73.5 a 30.003,30.003 0 0 0 1.062,2.6875 l 0,75.09375 c -44.124,-52.30637 -106.682,-80.69892 -170.094,-81.03125 -44.763,-0.2346 -89.924,13.49634 -129.344,42.65625 -105.115,77.75975 -131.893,230.976 -62.124,345.09375 a 30.003,30.003 0 0 0 1.156,1.71875 30.003,30.003 0 0 0 1.281,2.1875 c 70.807,111.22228 214.835,141.1079 318.563,64.375 45.592,-33.72716 76.462,-81.63572 91.093,-134.40625 a 30.003,30.003 0 0 0 9.469,-22.28125 l 0,-37.65625 c 0.362,-8.11189 0.37,-16.23226 0,-24.375 l 0,-237.96875 a 30.003,30.003 0 0 0 -4.531,-16.25 c -11.194,-31.71657 -26.017,-61.18975 -44.125,-87.4375 -49.186,-71.29549 -118.146,-112.01948 -189.656,-116 -4.471,-0.24878 -8.937,-0.353 -13.407,-0.3125 z m 22.281,279.28125 c 53.802,-0.0915 106.367,28.88745 139.813,83.59375 53.513,87.53009 31.607,207.71354 -46.594,265.5625 -77.145,57.06821 -178.088,36.83145 -232.312,-48.34375 a 30.003,30.003 0 0 0 -0.75,-1.125 30.003,30.003 0 0 0 -0.03,-0.0313 30.003,30.003 0 0 0 -1.063,-1.8125 c -53.513,-87.53009 -31.607,-207.71354 46.594,-265.5625 29.325,-21.69336 62.063,-32.22637 94.343,-32.28125 z"/>
</svg>
