<?xml version="1.0" encoding="UTF-8"?>
<svg xmlns:svg="http://www.w3.org/2000/svg" xmlns="http://www.w3.org/2000/svg" viewBox="0 0 1000 1000">
  <path transform="translate(-17000,0)" style="fill:#000000;fill-opacity:1;stroke:none" d="m 17630,422.36218 a 30.003,30.003 0 0 0 -30,30 l 0,360 a 30.003,30.003 0 0 0 40.406,28.53125 30.003,30.003 0 0 0 9.594,1.46875 l 160,0 c 42.857,0 78.805,-18.07432 101.625,-44.96875 22.82,-26.89443 33.375,-61.16761 33.375,-95.03125 0,-33.86364 -10.555,-68.16807 -33.375,-95.0625 -22.82,-26.89443 -58.768,-44.9375 -101.625,-44.9375 l -150,0 0,-80 250,0 a 30.003,30.003 0 1 0 0,-60 l -280,0 z m 30,200 150,0 c 27.143,0 43.695,9.42568 55.875,23.78125 12.18,14.35557 19.125,35.08239 19.125,56.21875 0,21.13636 -6.945,41.83193 -19.125,56.1875 -12.18,14.35557 -28.732,23.8125 -55.875,23.8125 l -150,0 0,-160 z"/>
</svg>
