<?xml version="1.0" encoding="UTF-8"?>
<svg xmlns:svg="http://www.w3.org/2000/svg" xmlns="http://www.w3.org/2000/svg" viewBox="0 0 1000 1000">
  <path transform="translate(-19000,0)" style="fill:#000000;fill-opacity:1;stroke:none" d="m 19430.438,141.92468 a 30.003,30.003 0 0 1 29.562,30.4375 l 0,279.99999 0,40 0,56.09375 c 0.365,2.68144 0.365,5.41231 0,8.09375 l 0,255.8125 c 0.112,7.92469 -3.061,15.85636 -8.625,21.5 -5.564,5.64364 -13.449,8.9375 -21.375,8.9375 -7.925,0 -15.811,-3.29386 -21.375,-8.9375 -5.564,-5.64364 -8.737,-13.57531 -8.625,-21.5 l 0,-247.65625 c -13.108,-12.62715 -42.07,-38.04136 -76.344,-52.0625 -23.371,-9.56123 -47.596,-13.57105 -71.593,-7.21875 -23.998,6.3523 -50.081,23.07402 -77.094,63.59375 -4.36,6.53786 -11.388,11.24185 -19.094,12.78125 -7.706,1.53941 -15.994,-0.10782 -22.531,-4.46875 -6.537,-4.36094 -11.243,-11.38742 -12.781,-19.09375 -1.539,-7.70632 0.107,-15.99446 4.468,-22.53125 32.987,-49.48027 71.904,-77.75855 111.657,-88.28125 39.752,-10.5227 78.028,-3.28252 109.656,9.65625 20.348,8.32434 38.284,19.10175 53.656,29.875 l 0,-14.875 0,-299.71874 a 30.003,30.003 0 0 1 30.438,-30.4375 z"/>
</svg>
