<?xml version="1.0" encoding="UTF-8"?>
<svg xmlns:svg="http://www.w3.org/2000/svg" xmlns="http://www.w3.org/2000/svg" viewBox="0 0 1000 1000">
  <path transform="translate(-10000,0)" style="fill:#000000;fill-opacity:1;stroke:none" d="m 10329.558,221.92468 a 30.003,30.003 0 0 0 -29.562,30.4375 l 0,174.75 c -55.865,11.04795 -106.93,48.91968 -135,106.875 a 30.003,30.003 0 0 0 -0.781,1.75 30.003,30.003 0 0 0 -0.09,0.15625 30.003,30.003 0 0 0 -0.906,1.875 c -46.311,100.4863 -13.868,223.29315 77.062,279.03125 92.254,56.5496 210.841,16.4819 259.719,-84.4375 48.878,-100.9194 16.973,-226.2629 -75.281,-282.8125 -20.624,-12.64186 -42.543,-20.45605 -64.719,-23.84375 l 0,-173.34375 a 30.003,30.003 0 0 0 -30.438,-30.4375 z m 3.876,260.65625 c 20.163,0.40024 40.66,6.30831 59.937,18.125 62.936,38.5779 88.305,131.8309 52.625,205.5 -35.68,73.6691 -111.439,98.0154 -174.375,59.4375 -62.006,-38.0083 -87.793,-129.2902 -53.937,-202.75 a 30.003,30.003 0 0 0 0.374,-0.90625 30.003,30.003 0 0 0 0,-0.0313 30.003,30.003 0 0 0 0.938,-1.8125 c 23.605,-48.73677 64.725,-75.90574 108.094,-77.53125 a 30.003,30.003 0 0 0 6.344,-0.0313 z"/>
</svg>
