<?xml version="1.0" encoding="UTF-8"?>
<svg xmlns:svg="http://www.w3.org/2000/svg" xmlns="http://www.w3.org/2000/svg" viewBox="0 0 1000 1000">
  <path transform="translate(-2000,0)" style="fill:#000000;fill-opacity:1;stroke:none" d="m 2502.1875,422.45593 c -57.4512,0.21617 -112.4326,33.55405 -137.0625,89.25 a 30.003,30.003 0 1 0 54.875,24.25 c 20.2467,-45.78398 72.9349,-66.15292 118.7187,-45.90625 45.7841,20.24667 66.153,72.93477 45.9063,118.71875 -14.5594,32.92331 -47.1275,53.91371 -83.125,53.59375 a 30.003,30.003 0 1 0 -0.5313,60 c 9.8563,0.0876 19.571,-0.81155 29.0313,-2.59375 a 30.003,30.003 0 0 0 4.2813,1.53125 c 59.8933,16.60217 103.3837,95.18308 87.9687,176.75 -15.415,81.56695 -77.0129,125.78962 -136.9063,109.18752 -40.3782,-11.19274 -75.6222,-50.62567 -87.2187,-105.34377 a 30.003,30.003 0 1 0 -58.6875,12.4375 c 15.4966,73.1208 64.0224,132.49587 129.875,150.75007 96.8785,26.8542 191.4394,-47.6072 211.9062,-155.90632 16.6721,-88.21859 -16.3935,-177.96448 -81.5937,-222.71875 16.8221,-14.33136 30.5905,-32.4423 39.875,-53.4375 33.3612,-75.44002 -1.0911,-164.48253 -76.5313,-197.84375 -18.86,-8.3403 -38.5528,-12.43481 -58.0312,-12.71875 -0.9131,-0.0133 -1.8381,-0.003 -2.75,0 z"/>
</svg>
