<?xml version="1.0" encoding="UTF-8"?>
<svg xmlns:svg="http://www.w3.org/2000/svg" xmlns="http://www.w3.org/2000/svg" viewBox="0 0 1000 1000">
  <path transform="translate(-12000,0)" style="fill:#000000;fill-opacity:1;stroke:none" d="m 12249.562,421.92468 a 30.003,30.003 0 0 0 -29.562,30.4375 l 0,260 c 0,43.57143 20.218,79.9475 49.094,102.40625 28.875,22.45875 65.073,32.59375 100.906,32.59375 35.833,0 72.031,-10.135 100.906,-32.59375 6.916,-5.37914 13.33,-11.55395 19.094,-18.4375 5.764,6.88355 12.178,13.05836 19.094,18.4375 28.875,22.45875 65.073,32.59375 100.906,32.59375 35.833,0 72.031,-10.135 100.906,-32.59375 28.876,-22.45875 49.094,-58.83482 49.094,-102.40625 l 0,-260 a 30.003,30.003 0 1 0 -60,0 l 0,260 c 0,26.42857 -9.782,42.52125 -25.906,55.0625 -16.125,12.54125 -39.927,19.9375 -64.094,19.9375 -24.167,0 -47.969,-7.39625 -64.094,-19.9375 -16.124,-12.54125 -25.906,-28.63393 -25.906,-55.0625 l 0,-260 a 30.003,30.003 0 0 0 -0.09,-2.96875 30.003,30.003 0 0 0 -10.937,-20.6875 30.003,30.003 0 0 0 -2.407,-1.78125 30.003,30.003 0 0 0 -14.031,-4.875 30.003,30.003 0 0 0 -2.969,-0.125 30.003,30.003 0 0 0 -3,0.21875 30.003,30.003 0 0 0 -5.874,1.28125 30.003,30.003 0 0 0 -5.469,2.40625 30.003,30.003 0 0 0 -4.875,3.4375 30.003,30.003 0 0 0 -0.03,0.0313 30.003,30.003 0 0 0 -0.06,0.0625 30.003,30.003 0 0 0 -2.062,2 30.003,30.003 0 0 0 -1.969,2.28125 30.003,30.003 0 0 0 -2.625,4.15625 30.003,30.003 0 0 0 -0.532,0.90625 30.003,30.003 0 0 0 0,0.0313 30.003,30.003 0 0 0 -2.093,5.59375 30.003,30.003 0 0 0 0,0.0313 30.003,30.003 0 0 0 -0.594,2.90625 30.003,30.003 0 0 0 0,0.0313 30.003,30.003 0 0 0 -0.344,2.9375 30.003,30.003 0 0 0 0,0.0313 30.003,30.003 0 0 0 -0.04,2.0935 l 0,260 c 0,26.42857 -9.782,42.52125 -25.906,55.0625 -16.125,12.54125 -39.927,19.9375 -64.094,19.9375 -24.167,0 -47.969,-7.39625 -64.094,-19.9375 -16.124,-12.54125 -25.906,-28.63393 -25.906,-55.0625 l 0,-260 a 30.003,30.003 0 0 0 -30.438,-30.4375 z"/>
</svg>
