<?xml version="1.0" encoding="UTF-8"?>
<svg xmlns:svg="http://www.w3.org/2000/svg" xmlns="http://www.w3.org/2000/svg" viewBox="0 0 1000 1000">
  <path transform="translate(-17000,0)" style="fill:#000000;fill-opacity:1;stroke:none" d="m 17270,847.36218 c -35.833,0 -72.031,-10.10375 -100.906,-32.5625 -28.876,-22.45875 -49.094,-58.86607 -49.094,-102.4375 l 0,-260 a 30.003,30.003 0 1 1 60,0 l 0,260 c 0,26.42857 9.782,42.5525 25.906,55.09375 16.125,12.54125 39.927,19.90625 64.094,19.90625 24.167,0 47.969,-7.365 64.094,-19.90625 16.124,-12.54125 25.906,-28.66518 25.906,-55.09375 l 0,-260 a 30.003,30.003 0 1 1 60,0 l 0,260 c 0,43.57143 -20.218,79.97875 -49.094,102.4375 -28.875,22.45875 -65.073,32.5625 -100.906,32.5625 z"/>
</svg>
