<?xml version="1.0" encoding="UTF-8"?>
<svg xmlns:svg="http://www.w3.org/2000/svg" xmlns="http://www.w3.org/2000/svg" viewBox="0 0 1000 1000">
  <path transform="translate(-18000,0)" style="fill:#000000;fill-opacity:1;stroke:none" d="m 18449.562,172.36218 c -7.854,0.11462 -15.612,3.46168 -21.085,9.09628 -5.472,5.63459 -8.592,13.48731 -8.477,21.34122 l 0,1 c -0.112,7.92469 3.071,15.84542 8.635,21.48906 5.565,5.64364 13.44,8.9382 21.365,8.9382 7.925,0 15.8,-3.29456 21.365,-8.9382 5.564,-5.64364 8.747,-13.56437 8.635,-21.48906 l 0,-1 c 0.117,-7.9999 -3.127,-15.99586 -8.785,-21.6532 -5.657,-5.65734 -13.653,-8.90115 -21.653,-8.7843 z m 0,110.5 c -7.854,0.11462 -15.612,3.46168 -21.085,9.09628 -5.472,5.63459 -8.592,13.48731 -8.477,21.34122 l 0,499.0625 c -0.112,7.92469 3.071,15.84542 8.635,21.48906 5.565,5.64364 13.44,8.9382 21.365,8.9382 7.925,0 15.8,-3.29456 21.365,-8.9382 5.564,-5.64364 8.747,-13.56437 8.635,-21.48906 l 0,-499.0625 c 0.117,-7.9999 -3.127,-15.99586 -8.785,-21.6532 -5.657,-5.65734 -13.653,-8.90115 -21.653,-8.7843 z"/>
</svg>
