<?xml version="1.0" encoding="UTF-8"?>
<svg xmlns:svg="http://www.w3.org/2000/svg" xmlns="http://www.w3.org/2000/svg" viewBox="0 0 1000 1000">
  <path transform="translate(0,0)" style="fill:#000000;fill-opacity:1;stroke:none" d="M 649.5625,201.92468 A 30.003,30.003 0 0 0 620,232.36218 l 0,120 a 30.003,30.003 0 1 0 60,0 l 0,-120 a 30.003,30.003 0 0 0 -30.4375,-30.4375 z M 650,417.36218 c -35.83333,0 -72.03071,10.10375 -100.90625,32.5625 C 520.21821,472.38343 500,508.79075 500,552.36218 l 0,260 a 30.003,30.003 0 1 0 60,0 l 0,-260 c 0,-26.42857 9.78179,-42.52125 25.90625,-55.0625 16.12446,-12.54125 39.92708,-19.9375 64.09375,-19.9375 24.16667,0 47.96929,7.39625 64.09375,19.9375 C 730.21821,509.84093 740,525.93361 740,552.36218 l 0,241.4375 -223.40625,111.71875 a 30.003,30.003 0 0 0 3.90625,55.3125 l 240,79.99997 a 30.011993,30.011993 0 1 0 19,-56.93747 L 608.21875,926.79968 783.40625,839.20593 A 30.003,30.003 0 0 0 800,812.36218 l 0,-260 C 800,508.79075 779.78179,472.38343 750.90625,449.92468 722.03071,427.46593 685.83333,417.36218 650,417.36218 z"/>
</svg>
