<?xml version="1.0" encoding="UTF-8"?>
<svg xmlns:svg="http://www.w3.org/2000/svg" xmlns="http://www.w3.org/2000/svg" viewBox="0 0 1000 1000">
  <path transform="translate(-13000,0)" style="fill:#000000;fill-opacity:1;stroke:none" d="m 13530,422.36218 c -7.854,7.9e-4 -15.659,3.23422 -21.212,8.78768 -5.554,5.55345 -8.787,13.35855 -8.788,21.21232 l 0,360 c -0.112,7.92469 3.071,15.84542 8.635,21.48906 5.565,5.64364 13.44,8.9382 21.365,8.9382 7.925,0 15.8,-3.29456 21.365,-8.9382 5.564,-5.64364 8.747,-13.56437 8.635,-21.48906 l 0,-330 260,0 0,330 c -0.112,7.92469 3.071,15.84542 8.635,21.48906 5.565,5.64364 13.44,8.9382 21.365,8.9382 7.925,0 15.8,-3.29456 21.365,-8.9382 5.564,-5.64364 8.747,-13.56437 8.635,-21.48906 l 0,-360 c 0,-7.85377 -3.234,-15.65887 -8.788,-21.21232 -5.553,-5.55346 -13.358,-8.78689 -21.212,-8.78768 z m 100,429.5625 c -7.853,0.11462 -15.62,3.45915 -21.093,9.09375 -5.472,5.63459 -8.584,13.48984 -8.469,21.34375 l 0,45 c -0.112,7.92469 3.061,15.85636 8.625,21.5 5.565,5.64364 13.45,8.9375 21.375,8.9375 7.925,0 15.81,-3.29386 21.375,-8.9375 5.564,-5.64364 8.737,-13.57531 8.625,-21.5 l 0,-45 c 0.117,-7.9999 -3.123,-15.99891 -8.781,-21.65625 -5.657,-5.65734 -13.657,-8.8981 -21.657,-8.78125 z m 120,0 c -7.853,0.11462 -15.62,3.45915 -21.093,9.09375 -5.472,5.63459 -8.584,13.48984 -8.469,21.34375 l 0,45 c -0.112,7.92469 3.061,15.85636 8.625,21.5 5.565,5.64364 13.45,8.9375 21.375,8.9375 7.925,0 15.81,-3.29386 21.375,-8.9375 5.564,-5.64364 8.737,-13.57531 8.625,-21.5 l 0,-45 c 0.117,-7.9999 -3.123,-15.99891 -8.781,-21.65625 -5.657,-5.65734 -13.657,-8.8981 -21.657,-8.78125 z"/>
</svg>
