<?xml version="1.0" encoding="UTF-8"?>
<svg xmlns:svg="http://www.w3.org/2000/svg" xmlns="http://www.w3.org/2000/svg" viewBox="0 0 1000 1000">
  <path transform="translate(-4000,0)" style="fill:#000000;fill-opacity:1;stroke:none" d="m 4741.562,423.67468 c 56.906,-2.04342 114.319,21.99956 154,70.84375 A 30.003,30.003 0 1 1 4849,532.36218 c -50.384,-62.0176 -132.463,-67.34989 -189,-12.78125 -56.538,54.56862 -62.071,151.57612 -11.688,213.59372 50.384,62.0176 132.463,67.3499 189,12.7813 2.177,-2.1005 4.288,-4.3066 6.344,-6.5625 a 30.00659,30.00659 0 0 1 44.344,40.4375 c -2.915,3.199 -5.927,6.2848 -9.032,9.2812 -80.027,77.2402 -206.673,68.7404 -277.218,-18.0937 -70.545,-86.8341 -63.434,-217.35363 16.594,-294.59377 35.011,-33.79256 78.958,-51.16067 123.218,-52.75 z"/>
</svg>
