<?xml version="1.0" encoding="UTF-8"?>
<svg xmlns:svg="http://www.w3.org/2000/svg" xmlns="http://www.w3.org/2000/svg" viewBox="0 0 1000 1000">
  <path transform="translate(-9000,0)" style="fill:#000000;fill-opacity:1;stroke:none" d="m 9210.2187,421.92468 a 30.003,30.003 0 0 0 -29.5625,30.4375 l 0,260 c 0,43.57143 20.2181,79.9475 49.0938,102.40625 28.8755,22.45875 65.0729,32.59375 100.9062,32.59375 31.451,0 63.1849,-7.77979 90,-24.875 l 0,189.87502 a 30.003,30.003 0 1 0 60,0 l 0,-280.00002 a 30.003,30.003 0 0 0 -0.6562,-6.625 c 0.4256,-4.3746 0.6562,-8.83668 0.6562,-13.375 l 0,-260 a 30.003,30.003 0 1 0 -60,0 l 0,260 c 0,26.42857 -9.7819,42.52125 -25.9062,55.0625 -16.1245,12.54125 -39.9271,19.9375 -64.0938,19.9375 -24.1667,0 -47.9693,-7.39625 -64.0938,-19.9375 -16.1243,-12.54125 -25.9062,-28.63393 -25.9062,-55.0625 l 0,-260 a 30.003,30.003 0 0 0 -30.4375,-30.4375 z"/>
</svg>
