<?xml version="1.0" encoding="UTF-8"?>
<svg xmlns:svg="http://www.w3.org/2000/svg" xmlns="http://www.w3.org/2000/svg" viewBox="0 0 1000 1000">
  <path transform="translate(-8000,0)" style="fill:#000000;fill-opacity:1;stroke:none" d="m 8687.9376,422.29968 c -18.1173,10e-4 -36.0786,1.40918 -53.4376,4.09375 -46.2906,7.15886 -88.7485,22.79998 -118.3437,51.3125 a 30.003,30.003 0 1 0 41.625,43.1875 c 15.7093,-15.13462 47.9867,-29.3593 85.875,-35.21875 37.8883,-5.85945 80.987,-3.98808 117.6563,6.5 36.6692,10.48808 58.0104,27.81884 64.5312,39.4375 6.5208,11.61866 7.1468,17.08413 -8.5625,32.21875 -16.3414,15.74354 -52.6164,31.57792 -96.4687,36.625 a 30.010024,30.010024 0 0 0 -18.5,50.21875 30.010024,30.010024 0 0 0 0.1874,0.21875 30.010024,30.010024 0 0 0 20.1563,11.28125 c 43.8524,5.04708 80.1274,20.88146 96.4687,36.625 15.7094,15.13462 15.0834,20.60009 8.5626,32.21875 -6.5209,11.61866 -27.862,28.94942 -64.5313,39.4375 -36.6692,10.48808 -79.7679,12.35945 -117.6563,6.5 -37.8883,-5.85945 -70.1656,-20.08413 -85.875,-35.21875 A 30.003,30.003 0 1 0 8518,784.92468 c 29.5952,28.51252 72.0532,44.15364 118.3438,51.3125 17.3589,2.68457 35.3202,4.09275 53.4375,4.09375 30.1957,0.002 60.8258,-3.87888 89.875,-12.1875 46.4788,-13.29379 82.0647,-35.18041 100.3437,-67.75 18.2791,-32.56959 10.3452,-76.26873 -19.25,-104.78125 -9.9496,-9.58563 -21.4883,-17.7979 -34.3124,-24.78125 12.0928,-6.76446 22.9949,-14.6853 32.4687,-23.8125 29.5952,-28.51252 37.5291,-72.21166 19.25,-104.78125 -18.2791,-32.56959 -53.8649,-54.45621 -100.3437,-67.75 -29.0492,-8.30862 -59.6793,-12.18958 -89.875,-12.1875 z"/>
</svg>
