<?xml version="1.0" encoding="UTF-8"?>
<svg xmlns:svg="http://www.w3.org/2000/svg" xmlns="http://www.w3.org/2000/svg" viewBox="0 0 1000 1000">
  <path transform="translate(-8000,0)" style="fill:#000000;fill-opacity:1;stroke:none" d="m 8004.5313,141.92468 a 30.003,30.003 0 0 0 -29.5625,30.4375 l 0,280 0,40 0,56.09375 c -0.365,2.68144 -0.365,5.41231 0,8.09375 l 0,255.8125 c -0.1121,7.92469 3.0606,15.85636 8.625,21.5 5.5644,5.64364 13.4495,8.9375 21.375,8.9375 7.9255,0 15.8106,-3.29386 21.375,-8.9375 5.5644,-5.64364 8.7371,-13.57531 8.625,-21.5 l 0,-247.65625 c 13.1078,-12.62715 42.0699,-38.04136 76.3438,-52.0625 23.3716,-9.56123 47.5961,-13.57105 71.5937,-7.21875 23.9976,6.3523 50.0806,23.07402 77.0937,63.59375 4.3601,6.53786 11.3876,11.24185 19.0938,12.78125 7.7061,1.53941 15.994,-0.10782 22.5312,-4.46875 6.5373,-4.36094 11.2429,-11.38742 12.7813,-19.09375 1.5385,-7.70632 -0.1071,-15.99446 -4.4687,-22.53125 -32.9869,-49.48027 -71.9039,-77.75855 -111.6563,-88.28125 -39.7524,-10.5227 -78.028,-3.28252 -109.6563,9.65625 -20.3482,8.32434 -38.2842,19.10175 -53.6562,29.875 l 0,-14.875 0,-299.71875 a 30.003,30.003 0 0 0 -30.4375,-30.4375 z"/>
</svg>
