<?xml version="1.0" encoding="UTF-8"?>
<svg xmlns:svg="http://www.w3.org/2000/svg" xmlns="http://www.w3.org/2000/svg" viewBox="0 0 1000 1000">
  <path transform="translate(-6000,0)" style="fill:#000000;fill-opacity:1;stroke:none" d="m 6280.3127,165.98718 c -1.5401,-0.0209 -3.091,-0.001 -4.625,0.0313 -24.5436,0.51784 -48.2206,7.77501 -68.3125,19.09375 -40.1837,22.63747 -70.3851,58.87394 -83.3438,97.75 a 30.01204,30.01204 0 1 0 56.9376,19 c 7.0412,-21.12394 29.6326,-49.70275 55.8437,-64.46875 26.2111,-14.766 51.6252,-18.33324 79.0313,-0.0625 23.2794,15.51973 27.9062,28.60268 27.9062,46.28125 0,17.67857 -8.5576,40.96064 -21.9688,63.3125 -20.3235,33.87261 -49.5119,63.98226 -62.5,76.625 -63.1925,5.38521 -123.0095,45.05759 -154.2812,109.625 a 30.003,30.003 0 0 0 -0.7812,1.75 30.003,30.003 0 0 0 -0.094,0.15625 30.003,30.003 0 0 0 -0.9062,1.875 c -46.3107,100.48631 -13.8678,223.29321 77.0624,279.03125 92.2544,56.5496 210.8409,16.48192 259.7188,-84.4375 48.8779,-100.91942 16.9731,-226.2629 -75.2812,-282.8125 -10.3887,-6.368 -21.1158,-11.49809 -32.0313,-15.46875 13.3381,-15.51913 27.9611,-34.51855 40.5313,-55.46875 16.5888,-27.64814 30.5312,-59.36607 30.5312,-94.1875 0,-34.82143 -17.8733,-71.73848 -54.5938,-96.21875 -22.038,-14.69211 -45.7418,-21.09206 -68.8437,-21.40625 z m -13.3437,315.84375 a 30.015751,30.015751 0 0 0 10.5937,0.0937 c 18.8231,1.07658 37.8502,6.95827 55.8125,17.96875 62.9355,38.57787 88.3049,131.83089 52.625,205.5 -35.6799,73.66911 -111.4395,98.01537 -174.375,59.4375 -62.0063,-38.00829 -87.7926,-129.2902 -53.9375,-202.75 a 30.003,30.003 0 0 0 0.375,-0.90625 30.003,30.003 0 0 0 0,-0.0313 30.003,30.003 0 0 0 0.9375,-1.8125 c 23.5773,-48.68055 64.6558,-75.81751 107.9688,-77.5 z"/>
</svg>
