<?xml version="1.0" encoding="UTF-8"?>
<svg xmlns:svg="http://www.w3.org/2000/svg" xmlns="http://www.w3.org/2000/svg" viewBox="0 0 1000 1000">
  <path transform="translate(-7000,0)" style="fill:#000000;fill-opacity:1;stroke:none" d="m 7071.1875,421.92468 a 30.003,30.003 0 0 0 -29.5625,30.4375 l 0,175.15625 a 30.003,30.003 0 0 0 0,9.65625 l 0,175.1875 a 30.003,30.003 0 1 0 60,0 l 0,-150 82.1875,0 c 7.4396,63.46433 41.122,122.23 96.4687,156.15625 92.2544,56.5496 210.8409,16.4819 259.7188,-84.4375 48.8779,-100.9194 16.9731,-226.2629 -75.2812,-282.8125 -28.8295,-17.6718 -60.2071,-25.92 -91.25,-25.8125 -68.2944,0.2365 -134.8652,40.8679 -168.4688,110.25 a 30.003,30.003 0 0 0 -0.7812,1.75 30.003,30.003 0 0 0 -0.094,0.15625 30.003,30.003 0 0 0 -0.9062,1.875 c -9.352,20.29261 -15.4979,41.49803 -18.5936,62.875 l -83,0 0,-150 a 30.003,30.003 0 0 0 -30.4375,-30.4375 z m 301.0313,62.34375 c 20.5572,0.1807 41.4889,6.10065 61.1562,18.15625 62.9355,38.5779 88.3049,131.8309 52.625,205.5 -35.6799,73.6691 -111.4395,98.0154 -174.375,59.4375 -62.0063,-38.0083 -87.7926,-129.2902 -53.9375,-202.75 a 30.003,30.003 0 0 0 0.375,-0.90625 30.003,30.003 0 0 0 0,-0.0313 30.003,30.003 0 0 0 0.9375,-1.8125 c 24.5299,-50.6475 67.9929,-77.99135 113.2188,-77.59375 z"/>
</svg>
