<?xml version="1.0" encoding="UTF-8"?>
<svg xmlns:svg="http://www.w3.org/2000/svg" xmlns="http://www.w3.org/2000/svg" viewBox="0 0 1000 1000">
  <path transform="translate(-16000,0)" style="fill:#000000;fill-opacity:1;stroke:none" d="m 16789.562,423.14343 c -55.141,-0.40133 -110.215,23.65094 -148.656,70.96875 a 30.003,30.003 0 1 0 46.562,37.84375 c 50.384,-62.0176 132.463,-67.34989 189,-12.78125 23.184,22.37596 37.777,51.87848 43.469,83.1875 l -159.031,0 a 30.003,30.003 0 1 0 0,60 l 159.094,0 c -4.591,25.42954 -15.141,49.84656 -31.844,70.40625 -50.384,62.0176 -132.463,67.34989 -189,12.78125 -2.177,-2.10051 -4.288,-4.30656 -6.344,-6.5625 a 30.00659,30.00659 0 0 0 -44.344,40.4375 c 2.916,3.19902 5.927,6.28484 9.032,9.28125 80.027,77.24014 206.673,68.74037 277.218,-18.09375 70.545,-86.83412 63.435,-217.35361 -16.593,-294.59375 -35.011,-33.79256 -78.959,-51.16067 -123.219,-52.75 -1.778,-0.0639 -3.565,-0.11205 -5.344,-0.125 z"/>
</svg>
