<?xml version="1.0" encoding="UTF-8"?>
<svg xmlns:svg="http://www.w3.org/2000/svg" xmlns="http://www.w3.org/2000/svg" viewBox="0 0 1000 1000">
  <path transform="translate(0,0)" style="fill:#000000;fill-opacity:1;stroke:none" d="m 43.625,421.98718 a 30.003,30.003 0 0 0 -24.65625,47 L 127.875,632.36218 18.96875,795.70593 a 30.005814,30.005814 0 1 0 49.9375,33.28125 l 95.03125,-142.5625 95.03125,142.5625 a 30.005814,30.005814 0 1 0 49.9375,-33.28125 L 200,632.36218 308.90625,468.98718 A 30.003,30.003 0 0 0 283.375,422.01843 30.003,30.003 0 0 0 258.96875,435.70593 L 163.9375,578.23718 68.90625,435.70593 A 30.003,30.003 0 0 0 43.625,421.98718 z"/>
</svg>
