<?xml version="1.0" encoding="UTF-8"?>
<svg xmlns:svg="http://www.w3.org/2000/svg" xmlns="http://www.w3.org/2000/svg" viewBox="0 0 1000 1000">
  <path transform="translate(-4000,0)" style="fill:#000000;fill-opacity:1;stroke:none" d="m 4396.3438,417.58093 c -1.3855,0.007 -2.7814,0.0183 -4.1562,0.0625 -38.4945,1.23675 -72.6482,16.13232 -98.5938,39.1875 -29.6521,26.34878 -49.3639,62.36246 -60.0312,101.3125 -3.9244,14.32914 -6.6721,29.17863 -8.1876,44.21875 l -27.2812,0 c -1.6658,-50.30156 -16.8021,-97.9896 -50.0312,-131.21875 -39.2365,-39.23636 -82.7265,-52.78414 -120.7188,-52.53125 -17.2692,0.11495 -33.4095,3.08443 -47.5,7.78125 -45.0895,15.02982 -74.2188,44.75 -74.2188,44.75 a 30.007879,30.007879 0 1 0 42.4376,42.4375 c 0,0 20.8707,-20.27982 50.7812,-30.25 29.9105,-9.97018 63.8524,-12.67893 106.7812,30.25 27.6258,27.62563 40.1686,99.32636 24.625,161.5 -7.7716,31.08682 -21.7424,59.1548 -39.4062,78.0625 -17.6638,18.9077 -37.5714,29.21875 -64,29.21875 -30,0 -58.5229,-14.13938 -73.1562,-43.40625 A 30.005285,30.005285 0 1 0 3900,765.76843 c 25.3666,50.73313 76.8438,76.59375 126.8438,76.59375 43.5714,0 81.1638,-19.68895 107.875,-48.28125 26.7112,-28.5923 43.9904,-65.52432 53.7188,-104.4375 2.2439,-8.97591 4.1246,-18.09791 5.625,-27.28125 l 32,0 c 5.9517,46.97665 24.9961,92.18359 59.5624,126.75 57.0712,57.07107 123.1293,59.77982 168.2188,44.75 45.0895,-15.02982 74.2188,-44.75 74.2188,-44.75 a 30.003,30.003 0 1 0 -42.4376,-42.40625 c 0,0 -20.8707,20.27982 -50.7812,30.25 -29.9105,9.97018 -63.8524,12.67893 -106.7812,-30.25 -40.7133,-40.71324 -52.9141,-113.24266 -36.625,-172.71875 8.1444,-29.73805 23.0048,-55.43351 42,-72.3125 18.9951,-16.87899 41.3643,-25.93859 71.3124,-23.84375 32.7356,2.28981 60.8838,14.7673 75.25,43.5 a 30.01227,30.01227 0 1 0 53.6876,-26.84375 c -25.6338,-51.2673 -77.6807,-73.20755 -124.75,-76.5 -4.2485,-0.29717 -8.4372,-0.42728 -12.5938,-0.40625 z"/>
</svg>
