<?xml version="1.0" encoding="UTF-8"?>
<svg xmlns:svg="http://www.w3.org/2000/svg" xmlns="http://www.w3.org/2000/svg" viewBox="0 0 1000 1000">
  <path transform="translate(-18000,0)" style="fill:#000000;fill-opacity:1;stroke:none" d="M 18950.813,221.95593 A 30.003,30.003 0 0 0 18922,242.86218 c 0,0 -30.637,91.54112 -72.437,198.28125 -41.861,-53.83042 -77.875,-90 -77.875,-90 a 30.008021,30.008021 0 1 0 -42.438,42.4375 c 0,0 46.618,46.74549 94.125,112.5625 -19.112,46.12774 -39.467,92.24785 -59.75,132.8125 -22.273,44.54699 -22.62,89.00462 -7.812,124.09375 14.807,35.08913 42.95,60.45197 74.468,73.84375 31.52,13.39178 68.23,15.51788 99.313,-2.09375 31.083,-17.61163 50.875,-55.06578 50.875,-102.4375 0,-82.72233 -43.232,-165.50705 -89.25,-233.75 49.911,-123.6683 87.719,-236.75 87.719,-236.75 a 30.003,30.003 0 0 0 -28.125,-39.90625 z M 18863,566.79968 c 32.48,55.47119 57.469,115.86177 57.469,165.5625 0,32.62828 -9.693,44.14454 -20.469,50.25 -10.775,6.10546 -28.281,6.69706 -46.25,-0.9375 -17.968,-7.63456 -34.579,-22.79638 -42.656,-41.9375 -8.077,-19.14112 -9.455,-42.62108 6.219,-73.96875 15.48,-30.96057 30.875,-64.65776 45.687,-98.96875 z"/>
</svg>
