<?xml version="1.0" encoding="UTF-8"?>
<svg xmlns:svg="http://www.w3.org/2000/svg" xmlns="http://www.w3.org/2000/svg" viewBox="0 0 1000 1000">
  <path transform="translate(-5000,0)" style="fill:#000000;fill-opacity:1;stroke:none" d="m 5187.875,165.95593 c -1.3226,0.002 -2.6405,0.0195 -3.9687,0.0625 -2.8338,0.0917 -5.6771,0.28217 -8.5313,0.5625 -45.668,4.48525 -91.5784,35.21958 -120.1563,92.375 a 30.005285,30.005285 0 1 0 53.6876,26.8125 c 21.4221,-42.84458 48.0117,-57.11025 72.3437,-59.5 24.332,-2.38975 48.3196,8.90782 61.9375,26.78125 13.6179,17.87343 18.7604,40.32401 3.4062,70.3125 -15.354,29.98849 -55.0997,67.95098 -135.9687,101.25 a 30.003,30.003 0 0 0 -18.5625,27.75 l 0,96.09375 a 30.003,30.003 0 0 0 0,8.09375 l 0,255.8125 a 30.003,30.003 0 1 0 60,0 l 0,-247.65625 c 13.1078,-12.62715 42.0699,-38.04136 76.3438,-52.0625 23.3717,-9.56123 47.5961,-13.57105 71.5937,-7.21875 23.9976,6.3523 50.0806,23.07402 77.0937,63.59375 a 30.014524,30.014524 0 1 0 49.9376,-33.3125 c -32.9869,-49.48027 -71.9039,-77.75855 -111.6563,-88.28125 -39.7524,-10.5227 -78.028,-3.28252 -109.6563,9.65625 -20.3482,8.32434 -38.2842,19.10175 -53.6562,29.875 l 0,-14.875 c 77.9308,-35.09215 125.091,-76.66073 147.9688,-121.34375 24.6458,-48.13651 17.2883,-99.43593 -9.0938,-134.0625 -23.9604,-31.44796 -62.0623,-50.79016 -103.0625,-50.71875 z"/>
</svg>
