<?xml version="1.0" encoding="UTF-8"?>
<svg xmlns:svg="http://www.w3.org/2000/svg" xmlns="http://www.w3.org/2000/svg" viewBox="0 0 1000 1000">
  <path transform="translate(-12000,0)" style="fill:#000000;fill-opacity:1;stroke:none" d="m 12899.562,421.92468 a 30.003,30.003 0 0 0 -21.062,9.09375 30.003,30.003 0 0 0 -0.188,0.21875 30.003,30.003 0 0 0 -0.468,0.5 30.003,30.003 0 0 0 -7.844,25.46875 l 0,350.34375 a 30.003,30.003 0 0 0 8.125,25.75 30.003,30.003 0 0 0 0.875,0.90625 30.003,30.003 0 0 0 25.812,8.15625 l 115.188,0 c 59,0 106.849,-28.25057 136.594,-68.40625 29.745,-40.15568 43.406,-91.03819 43.406,-141.59375 0,-50.55556 -13.661,-101.46932 -43.406,-141.625 -29.745,-40.15568 -77.594,-68.375 -136.594,-68.375 l -114.938,0 a 30.003,30.003 0 0 0 -5.5,-0.4375 z m 30.438,60.4375 90,0 c 41,0 68.151,16.74943 88.406,44.09375 20.255,27.34432 31.594,66.46181 31.594,105.90625 0,39.44444 -11.339,78.53068 -31.594,105.875 -20.255,27.34432 -47.406,44.125 -88.406,44.125 l -90,0 0,-300 z"/>
</svg>
