<?xml version="1.0" encoding="UTF-8"?>
<svg xmlns:svg="http://www.w3.org/2000/svg" xmlns="http://www.w3.org/2000/svg" viewBox="0 0 1000 1000">
  <path transform="translate(-16000,0)" style="fill:#000000;fill-opacity:1;stroke:none" d="m 16306.75,423.26843 c -56.906,-2.04342 -114.319,21.99956 -154,70.84375 a 30.003,30.003 0 1 0 46.562,37.84375 c 50.384,-62.0176 132.463,-67.34989 189,-12.78125 56.538,54.56864 62.071,151.57615 11.688,213.59375 -50.384,62.0176 -132.463,67.34989 -189,12.78125 -2.177,-2.10051 -4.288,-4.30656 -6.344,-6.5625 a 30.00659,30.00659 0 0 0 -44.344,40.4375 c 2.915,3.19902 5.927,6.28484 9.032,9.28125 80.027,77.24014 206.673,68.74037 277.218,-18.09375 70.545,-86.83412 63.434,-217.35361 -16.594,-294.59375 -35.011,-33.79256 -78.958,-51.16067 -123.218,-52.75 z"/>
</svg>
