<?xml version="1.0" encoding="UTF-8"?>
<svg xmlns:svg="http://www.w3.org/2000/svg" xmlns="http://www.w3.org/2000/svg" viewBox="0 0 1000 1000">
  <path transform="translate(-11000,0)" style="fill:#000000;fill-opacity:1;stroke:none" d="m 11149.562,201.92468 c -7.853,0.11462 -15.62,3.45915 -21.093,9.09375 -5.472,5.63459 -8.584,13.48984 -8.469,21.34375 l 0,120 c -0.112,7.92469 3.061,15.85636 8.625,21.5 5.565,5.64364 13.45,8.9375 21.375,8.9375 7.925,0 15.81,-3.29386 21.375,-8.9375 5.564,-5.64364 8.737,-13.57531 8.625,-21.5 l 0,-120 c 0.117,-7.9999 -3.123,-15.99891 -8.781,-21.65625 -5.657,-5.65734 -13.657,-8.8981 -21.657,-8.78125 z M 11030,417.36218 c -35.833,0 -72.031,10.10375 -100.906,32.5625 -28.876,22.45875 -49.094,58.86607 -49.094,102.4375 l 0,260 a 30.003,30.003 0 1 0 60,0 l 0,-260 c 0,-26.42857 9.782,-42.5525 25.906,-55.09375 16.125,-12.54125 39.927,-19.90625 64.094,-19.90625 24.167,0 47.969,7.365 64.094,19.90625 16.124,12.54125 25.906,28.66518 25.906,55.09375 l 0,260 a 30.003,30.003 0 0 0 27.469,30.34375 30.003,30.003 0 0 0 2.969,0.0937 30.003,30.003 0 0 0 29.562,-30.43745 l 0,-260 c 0,-26.42857 9.782,-42.5525 25.906,-55.09375 16.125,-12.54125 39.927,-19.90625 64.094,-19.90625 24.167,0 47.969,7.365 64.094,19.90625 16.124,12.54125 25.906,28.66518 25.906,55.09375 l 0,238.75 -320,112.9375 a 30.003,30.003 0 0 0 3.125,57.5 l 340,80.00002 a 30.003,30.003 0 1 0 13.75,-58.40627 l -240.375,-56.5625 243.5,-85.9375 a 30.003,30.003 0 0 0 20,-28.28125 l 0,-260 c 0,-43.57143 -20.218,-79.97875 -49.094,-102.4375 -28.875,-22.45875 -65.073,-32.5625 -100.906,-32.5625 -35.833,0 -72.031,10.10375 -100.906,32.5625 -6.916,5.37914 -13.33,11.58248 -19.094,18.46875 -5.764,-6.88627 -12.178,-13.08961 -19.094,-18.46875 -28.875,-22.45875 -65.073,-32.5625 -100.906,-32.5625 z"/>
</svg>
