<?xml version="1.0" encoding="UTF-8"?>
<svg xmlns:svg="http://www.w3.org/2000/svg" xmlns="http://www.w3.org/2000/svg" viewBox="0 0 1000 1000">
  <path transform="translate(-9000,0)" style="fill:#000000;fill-opacity:1;stroke:none" d="m 9853.4688,422.9247 c -68.2944,0.2365 -134.8652,40.8679 -168.4688,110.25 a 30.003,30.003 0 0 0 -0.7812,1.75 30.003,30.003 0 0 0 -0.094,0.1562 30.003,30.003 0 0 0 -0.9062,1.875 c -46.3107,100.4863 -13.8679,223.2932 77.0624,279.0313 92.2544,56.5496 210.8409,16.4819 259.719,-84.4375 48.878,-100.9194 16.973,-226.2629 -75.2814,-282.8125 -28.8295,-17.6718 -60.2071,-25.92 -91.25,-25.8125 z m -1.25,58.8125 c 20.5572,0.1807 41.4889,6.1006 61.1562,18.1562 62.936,38.5779 88.305,131.8309 52.625,205.5 -35.6799,73.6691 -111.4395,98.0154 -174.375,59.4375 -62.0063,-38.0083 -87.7926,-129.2902 -53.9375,-202.75 a 30.003,30.003 0 0 0 0.375,-0.9062 30.003,30.003 0 0 0 0,-0.031 30.003,30.003 0 0 0 0.9375,-1.8125 c 24.5299,-50.6475 67.9929,-77.9914 113.2188,-77.5938 z"/>
</svg>
