<?xml version="1.0" encoding="UTF-8"?>
<svg xmlns:svg="http://www.w3.org/2000/svg" xmlns="http://www.w3.org/2000/svg" viewBox="0 0 1000 1000">
  <path transform="translate(-2000,0)" style="fill:#000000;fill-opacity:1;stroke:none" d="m 2970,417.36218 c -35.8333,0 -72.0307,10.10375 -100.9062,32.5625 C 2840.2181,472.38343 2820,508.79075 2820,552.36218 l 0,260 a 30.003,30.003 0 1 0 60,0 l 0,-260 c 0,-26.42857 9.7819,-42.5525 25.9062,-55.09375 16.1245,-12.54125 39.9271,-19.90625 64.0938,-19.90625 24.1667,0 47.9693,7.365 64.0938,19.90625 16.1243,12.54125 25.9062,28.66518 25.9062,55.09375 l 0,260 a 30.003,30.003 0 0 0 27.4688,30.34375 30.003,30.003 0 0 0 2.9687,0.0937 30.003,30.003 0 0 0 29.5625,-30.4375 l 0,-260 c 0,-26.42857 9.7819,-42.5525 25.9062,-55.09375 16.1245,-12.54125 39.9271,-19.90625 64.0938,-19.90625 24.1667,0 47.9693,7.365 64.0938,19.90625 16.1243,12.54125 25.9062,28.66518 25.9062,55.09375 l 0,242.3125 -344.5625,191.4375 a 30.005169,30.005169 0 1 0 29.125,52.46877 l 360,-200.00002 A 30.003,30.003 0 0 0 3360,812.36218 l 0,-260 c 0,-43.57143 -20.2181,-79.97875 -49.0938,-102.4375 -28.8755,-22.45875 -65.0729,-32.5625 -100.9062,-32.5625 -35.8333,0 -72.0307,10.10375 -100.9062,32.5625 -6.9161,5.37914 -13.3299,11.58248 -19.0938,18.46875 -5.7639,-6.88627 -12.1777,-13.08961 -19.0938,-18.46875 -28.8755,-22.45875 -65.0729,-32.5625 -100.9062,-32.5625 z"/>
</svg>
