<?xml version="1.0" encoding="UTF-8"?>
<svg xmlns:svg="http://www.w3.org/2000/svg" xmlns="http://www.w3.org/2000/svg" viewBox="0 0 1000 1000">
  <path transform="translate(-15000,0)" style="fill:#000000;fill-opacity:1;stroke:none" d="m 15873.093,421.92468 c -7.854,0.11462 -15.612,3.46168 -21.085,9.09628 -5.472,5.63459 -8.592,13.48731 -8.477,21.34122 l 0,150 -50.312,0 c -4.648,-44.92514 -20.058,-88.14596 -46.157,-122.8125 -27.683,-36.77079 -66.328,-57.81979 -105.656,-57.15625 -2.622,0.0442 -5.25,0.1984 -7.875,0.4375 -42,3.82559 -80.084,31.56719 -105.688,74.9375 -3.993,6.76597 -5.176,15.13423 -3.215,22.74206 1.96,7.60782 7.041,14.36149 13.808,18.35414 6.766,3.99266 15.134,5.17513 22.742,3.21354 7.608,-1.96159 14.361,-7.04309 18.353,-13.80974 18.333,-31.05555 40.129,-43.92872 59.438,-45.6875 19.308,-1.75878 40.068,6.38028 60.156,33.0625 40.176,53.36444 45.072,158.70141 8.406,220.8125 -18.333,31.05555 -40.129,43.92872 -59.438,45.6875 -19.308,1.75878 -40.068,-6.38028 -60.156,-33.0625 -1.545,-2.05293 -3.051,-4.20184 -4.531,-6.4375 -4.298,-6.63358 -11.319,-11.44379 -19.057,-13.05691 -7.738,-1.61312 -16.095,-0.009 -22.686,4.35484 -6.591,4.36361 -11.331,11.43142 -12.867,19.18497 -1.537,7.75356 0.15,16.09498 4.579,22.6421 2.131,3.2193 4.333,6.36225 6.625,9.40625 29.529,39.2222 71.531,60.54435 113.531,56.71875 42,-3.8255 80.084,-31.56719 105.688,-74.9375 18.569,-31.45556 29.807,-67.58603 33.812,-104.59375 l 50.5,0 0,150 c -0.112,7.92469 3.071,15.84542 8.635,21.48906 5.565,5.64364 13.44,8.9382 21.365,8.9382 7.925,0 15.8,-3.29456 21.365,-8.9382 5.564,-5.64364 8.747,-13.56437 8.635,-21.48906 l 0,-175.15625 c 0.52,-3.19067 0.52,-6.46558 0,-9.65625 l 0,-175.1875 c 0.117,-7.9999 -3.127,-15.99586 -8.785,-21.6532 -5.657,-5.65734 -13.653,-8.90115 -21.653,-8.7843 z"/>
</svg>
