<?xml version="1.0" encoding="UTF-8"?>
<svg xmlns:svg="http://www.w3.org/2000/svg" xmlns="http://www.w3.org/2000/svg" viewBox="0 0 1000 1000">
  <path transform="translate(-5000,0)" style="fill:#000000;fill-opacity:1;stroke:none" d="m 5609.5625,423.51843 c -7.854,0.11449 -15.6125,3.4615 -21.0851,9.0961 -5.4726,5.6346 -8.592,13.48741 -8.4774,21.3414 l 0,360 c 0,6.20122 1.9867,12.38667 5.5921,17.43208 3.6054,5.0454 8.8146,8.92637 14.6806,10.93749 5.8661,2.01112 12.3607,2.14266 18.3033,0.37073 5.9427,-1.77193 11.3047,-5.43878 15.1115,-10.33405 L 5860,541.39343 l 0,272.5625 c -0.1121,7.92469 3.0708,15.84542 8.6352,21.48906 5.5644,5.64364 13.4393,8.9382 21.3648,8.9382 7.9255,0 15.8004,-3.29456 21.3648,-8.9382 5.5644,-5.64364 8.7473,-13.56437 8.6352,-21.48906 l 0,-360 c -0,-6.20122 -1.9867,-12.38667 -5.5921,-17.43208 -3.6054,-5.0454 -8.8146,-8.92637 -14.6806,-10.93749 -5.8661,-2.01112 -12.3607,-2.14266 -18.3033,-0.37073 -5.9427,1.77193 -11.3047,5.43878 -15.1115,10.33405 L 5640,726.51843 l 0,-272.5625 c 0.1167,-7.99982 -3.1272,-15.99569 -8.7845,-21.65302 -5.6573,-5.65733 -13.6532,-8.9012 -21.653,-8.78448 z m 70,428.40625 c -7.854,0.11449 -15.6125,3.4615 -21.0851,9.0961 -5.4726,5.6346 -8.592,13.48741 -8.4774,21.3414 l 0,44.57274 c -0.1121,7.92469 3.0708,15.84542 8.6352,21.48906 5.5644,5.64365 13.4393,8.9382 21.3648,8.9382 7.9255,0 15.8004,-3.29455 21.3648,-8.9382 5.5644,-5.64364 8.7473,-13.56437 8.6352,-21.48906 l 0,-44.57274 c 0.1167,-7.99982 -3.1272,-15.99569 -8.7845,-21.65302 -5.6573,-5.65733 -13.6532,-8.9012 -21.653,-8.78448 z m 140,0 c -7.854,0.11449 -15.6125,3.4615 -21.0851,9.0961 -5.4726,5.6346 -8.592,13.48741 -8.4774,21.3414 l 0,44.57274 c -0.1121,7.92469 3.0708,15.84542 8.6352,21.48906 5.5644,5.64365 13.4393,8.9382 21.3648,8.9382 7.9255,0 15.8004,-3.29455 21.3648,-8.9382 5.5644,-5.64364 8.7473,-13.56437 8.6352,-21.48906 l 0,-44.57274 c 0.1167,-7.99982 -3.1272,-15.99569 -8.7845,-21.65302 -5.6573,-5.65733 -13.6532,-8.9012 -21.653,-8.78448 z"/>
</svg>
