<?xml version="1.0" encoding="UTF-8" standalone="no"?>
<!-- Created with Inkscape (http://www.inkscape.org/) -->

<svg
   xmlns:dc="http://purl.org/dc/elements/1.1/"
   xmlns:cc="http://creativecommons.org/ns#"
   xmlns:rdf="http://www.w3.org/1999/02/22-rdf-syntax-ns#"
   xmlns:svg="http://www.w3.org/2000/svg"
   xmlns="http://www.w3.org/2000/svg"
   xmlns:sodipodi="http://sodipodi.sourceforge.net/DTD/sodipodi-0.dtd"
   xmlns:inkscape="http://www.inkscape.org/namespaces/inkscape"
   width="1000"
   height="1000"
   id="svg2"
   version="1.1"
   inkscape:version="0.48.5 r10040"
   sodipodi:docname="liparxe.svg">
  <defs
     id="defs4" />
  <sodipodi:namedview
     id="base"
     pagecolor="#ffffff"
     bordercolor="#666666"
     borderopacity="1.0"
     inkscape:pageopacity="0.0"
     inkscape:pageshadow="2"
     inkscape:zoom="0.36981685"
     inkscape:cx="19445.377"
     inkscape:cy="343.07802"
     inkscape:document-units="px"
     inkscape:current-layer="layer1"
     showgrid="true"
     inkscape:window-width="1024"
     inkscape:window-height="555"
     inkscape:window-x="0"
     inkscape:window-y="26"
     inkscape:window-maximized="1"
     showguides="true"
     inkscape:guide-bbox="true">
    <inkscape:grid
       type="xygrid"
       id="grid2985"
       empspacing="5"
       visible="true"
       enabled="true"
       snapvisiblegridlinesonly="true" />
    <sodipodi:guide
       orientation="0,1"
       position="0,900"
       id="guide3049" />
    <sodipodi:guide
       orientation="0,1"
       position="2800,240"
       id="guide3051" />
    <sodipodi:guide
       orientation="0,1"
       position="0,600"
       id="guide3053" />
    <sodipodi:guide
       orientation="0,1"
       position="840,0"
       id="guide3859" />
    <sodipodi:guide
       orientation="1,0"
       position="20000,900"
       id="guide3922" />
    <sodipodi:guide
       orientation="0,1"
       position="13645,95"
       id="guide3039" />
  </sodipodi:namedview>
  <metadata
     id="metadata7">
    <rdf:RDF>
      <cc:Work
         rdf:about="">
        <dc:format>image/svg+xml</dc:format>
        <dc:type
           rdf:resource="http://purl.org/dc/dcmitype/StillImage" />
        <dc:title />
      </cc:Work>
    </rdf:RDF>
  </metadata>
  <g
     inkscape:label="レイヤー 1"
     inkscape:groupmode="layer"
     id="layer1"
     transform="translate(0,-52.362183)">
    <path
       id="p"
       style="font-size:medium;font-style:normal;font-variant:normal;font-weight:normal;font-stretch:normal;text-indent:0;text-align:start;text-decoration:none;line-height:normal;letter-spacing:normal;word-spacing:normal;text-transform:none;direction:ltr;block-progression:tb;writing-mode:lr-tb;text-anchor:start;baseline-shift:baseline;color:#000000;fill:#000000;fill-opacity:1;stroke:none;stroke-width:60;marker:none;visibility:visible;display:inline;overflow:visible;enable-background:accumulate;font-family:Sans;-inkscape-font-specification:Sans"
       d="m 43.625,421.98718 a 30.003,30.003 0 0 0 -24.65625,47 L 127.875,632.36218 18.96875,795.70593 a 30.005814,30.005814 0 1 0 49.9375,33.28125 l 95.03125,-142.5625 95.03125,142.5625 a 30.005814,30.005814 0 1 0 49.9375,-33.28125 L 200,632.36218 308.90625,468.98718 A 30.003,30.003 0 0 0 283.375,422.01843 30.003,30.003 0 0 0 258.96875,435.70593 L 163.9375,578.23718 68.90625,435.70593 A 30.003,30.003 0 0 0 43.625,421.98718 z" />
    <path
       id="fh"
       style="font-size:medium;font-style:normal;font-variant:normal;font-weight:normal;font-stretch:normal;text-indent:0;text-align:start;text-decoration:none;line-height:normal;letter-spacing:normal;word-spacing:normal;text-transform:none;direction:ltr;block-progression:tb;writing-mode:lr-tb;text-anchor:start;baseline-shift:baseline;color:#000000;fill:#000000;fill-opacity:1;stroke:none;stroke-width:60;marker:none;visibility:visible;display:inline;overflow:visible;enable-background:accumulate;font-family:Sans;-inkscape-font-specification:Sans"
       d="M 649.5625,201.92468 A 30.003,30.003 0 0 0 620,232.36218 l 0,120 a 30.003,30.003 0 1 0 60,0 l 0,-120 a 30.003,30.003 0 0 0 -30.4375,-30.4375 z M 650,417.36218 c -35.83333,0 -72.03071,10.10375 -100.90625,32.5625 C 520.21821,472.38343 500,508.79075 500,552.36218 l 0,260 a 30.003,30.003 0 1 0 60,0 l 0,-260 c 0,-26.42857 9.78179,-42.52125 25.90625,-55.0625 16.12446,-12.54125 39.92708,-19.9375 64.09375,-19.9375 24.16667,0 47.96929,7.39625 64.09375,19.9375 C 730.21821,509.84093 740,525.93361 740,552.36218 l 0,241.4375 -223.40625,111.71875 a 30.003,30.003 0 0 0 3.90625,55.3125 l 240,79.99997 a 30.011993,30.011993 0 1 0 19,-56.93747 L 608.21875,926.79968 783.40625,839.20593 A 30.003,30.003 0 0 0 800,812.36218 l 0,-260 C 800,508.79075 779.78179,472.38343 750.90625,449.92468 722.03071,427.46593 685.83333,417.36218 650,417.36218 z"
       inkscape:connector-curvature="0" />
    <path
       style="fill:none;stroke:#000000;stroke-width:60;stroke-linecap:round;stroke-linejoin:round;stroke-miterlimit:4;stroke-opacity:1;stroke-dasharray:none"
       d="m 1600,1712.3622 c 0,0 0,-180 0,-260 0,-140 240,-140 240,0 l 0,260 -240,120 240,80"
       id="path3763"
       inkscape:connector-curvature="0"
       sodipodi:nodetypes="cccccc" />
    <path
       id="f"
       style="font-size:medium;font-style:normal;font-variant:normal;font-weight:normal;font-stretch:normal;text-indent:0;text-align:start;text-decoration:none;line-height:normal;letter-spacing:normal;word-spacing:normal;text-transform:none;direction:ltr;block-progression:tb;writing-mode:lr-tb;text-anchor:start;baseline-shift:baseline;color:#000000;fill:#000000;fill-opacity:1;stroke:none;stroke-width:60;marker:none;visibility:visible;display:inline;overflow:visible;enable-background:accumulate;font-family:Sans;-inkscape-font-specification:Sans"
       d="m 1170,417.36218 c -35.8333,0 -72.0308,10.10375 -100.9062,32.5625 C 1040.2181,472.38343 1020,508.79075 1020,552.36218 l 0,260 a 30.003,30.003 0 1 0 60,0 l 0,-260 c 0,-26.42857 9.7819,-42.5525 25.9062,-55.09375 16.1246,-12.54125 39.9271,-19.90625 64.0938,-19.90625 24.1667,0 47.9692,7.365 64.0938,19.90625 16.1243,12.54125 25.9062,28.66518 25.9062,55.09375 l 0,260 a 30.003,30.003 0 0 0 27.4688,30.34375 30.003,30.003 0 0 0 2.9687,0.0937 30.003,30.003 0 0 0 29.5625,-30.4375 l 0,-260 c 0,-26.42857 9.7819,-42.5525 25.9062,-55.09375 16.1246,-12.54125 39.9271,-19.90625 64.0938,-19.90625 24.1667,0 47.9692,7.365 64.0938,19.90625 16.1243,12.54125 25.9062,28.66518 25.9062,55.09375 l 0,238.75 -320,112.9375 a 30.003,30.003 0 0 0 3.125,57.5 l 340,79.99997 a 30.003,30.003 0 1 0 13.75,-58.40622 L 1296.5,926.58093 1540,840.64343 a 30.003,30.003 0 0 0 20,-28.28125 l 0,-260 c 0,-43.57143 -20.2181,-79.97875 -49.0938,-102.4375 -28.8754,-22.45875 -65.0729,-32.5625 -100.9062,-32.5625 -35.8333,0 -72.0308,10.10375 -100.9062,32.5625 -6.9161,5.37914 -13.3299,11.58248 -19.0938,18.46875 -5.7639,-6.88627 -12.1777,-13.08961 -19.0938,-18.46875 -28.8754,-22.45875 -65.0729,-32.5625 -100.9062,-32.5625 z"
       inkscape:connector-curvature="0" />
    <path
       id="t"
       style="font-size:medium;font-style:normal;font-variant:normal;font-weight:normal;font-stretch:normal;text-indent:0;text-align:start;text-decoration:none;line-height:normal;letter-spacing:normal;word-spacing:normal;text-transform:none;direction:ltr;block-progression:tb;writing-mode:lr-tb;text-anchor:start;baseline-shift:baseline;color:#000000;fill:#000000;fill-opacity:1;stroke:none;stroke-width:60;marker:none;visibility:visible;display:inline;overflow:visible;enable-background:accumulate;font-family:Sans;-inkscape-font-specification:Sans"
       d="M 1669.5625,421.92468 A 30.003,30.003 0 0 0 1640,452.36218 l 0,360 a 30.003,30.003 0 0 0 53.6875,18.40625 L 1920,539.79968 l 0,272.5625 a 30.003,30.003 0 1 0 60,0 l 0,-360 a 30.003,30.003 0 0 0 -53.6875,-18.40625 L 1700,724.92468 l 0,-272.5625 a 30.003,30.003 0 0 0 -30.4375,-30.4375 z" />
    <path
       id="x"
       style="font-size:medium;font-style:normal;font-variant:normal;font-weight:normal;font-stretch:normal;text-indent:0;text-align:start;text-decoration:none;line-height:normal;letter-spacing:normal;word-spacing:normal;text-transform:none;direction:ltr;block-progression:tb;writing-mode:lr-tb;text-anchor:start;baseline-shift:baseline;color:#000000;fill:#000000;fill-opacity:1;stroke:none;stroke-width:60;marker:none;visibility:visible;display:inline;overflow:visible;enable-background:accumulate;font-family:Sans;-inkscape-font-specification:Sans"
       d="m 2970,417.36218 c -35.8333,0 -72.0307,10.10375 -100.9062,32.5625 C 2840.2181,472.38343 2820,508.79075 2820,552.36218 l 0,260 a 30.003,30.003 0 1 0 60,0 l 0,-260 c 0,-26.42857 9.7819,-42.5525 25.9062,-55.09375 16.1245,-12.54125 39.9271,-19.90625 64.0938,-19.90625 24.1667,0 47.9693,7.365 64.0938,19.90625 16.1243,12.54125 25.9062,28.66518 25.9062,55.09375 l 0,260 a 30.003,30.003 0 0 0 27.4688,30.34375 30.003,30.003 0 0 0 2.9687,0.0937 30.003,30.003 0 0 0 29.5625,-30.4375 l 0,-260 c 0,-26.42857 9.7819,-42.5525 25.9062,-55.09375 16.1245,-12.54125 39.9271,-19.90625 64.0938,-19.90625 24.1667,0 47.9693,7.365 64.0938,19.90625 16.1243,12.54125 25.9062,28.66518 25.9062,55.09375 l 0,242.3125 -344.5625,191.4375 a 30.005169,30.005169 0 1 0 29.125,52.46877 l 360,-200.00002 A 30.003,30.003 0 0 0 3360,812.36218 l 0,-260 c 0,-43.57143 -20.2181,-79.97875 -49.0938,-102.4375 -28.8755,-22.45875 -65.0729,-32.5625 -100.9062,-32.5625 -35.8333,0 -72.0307,10.10375 -100.9062,32.5625 -6.9161,5.37914 -13.3299,11.58248 -19.0938,18.46875 -5.7639,-6.88627 -12.1777,-13.08961 -19.0938,-18.46875 -28.8755,-22.45875 -65.0729,-32.5625 -100.9062,-32.5625 z"
       inkscape:connector-curvature="0" />
    <path
       id="k"
       style="font-size:medium;font-style:normal;font-variant:normal;font-weight:normal;font-stretch:normal;text-indent:0;text-align:start;text-decoration:none;line-height:normal;letter-spacing:normal;word-spacing:normal;text-transform:none;direction:ltr;block-progression:tb;writing-mode:lr-tb;text-anchor:start;baseline-shift:baseline;color:#000000;fill:#000000;fill-opacity:1;stroke:none;stroke-width:60;marker:none;visibility:visible;display:inline;overflow:visible;enable-background:accumulate;font-family:Sans;-inkscape-font-specification:Sans"
       d="m 3450,422.36218 a 30.003,30.003 0 0 0 -30,30 l 0,360 a 30.003,30.003 0 1 0 60,0 l 0,-330 260,0 0,330 a 30.003,30.003 0 1 0 60,0 l 0,-360 a 30.003,30.003 0 0 0 -30,-30 l -320,0 z"
       inkscape:connector-curvature="0" />
    <path
       id="q"
       style="font-size:medium;font-style:normal;font-variant:normal;font-weight:normal;font-stretch:normal;text-indent:0;text-align:start;text-decoration:none;line-height:normal;letter-spacing:normal;word-spacing:normal;text-transform:none;direction:ltr;block-progression:tb;writing-mode:lr-tb;text-anchor:start;baseline-shift:baseline;color:#000000;fill:#000000;fill-opacity:1;stroke:none;stroke-width:60;marker:none;visibility:visible;display:inline;overflow:visible;enable-background:accumulate;font-family:Sans;-inkscape-font-specification:Sans"
       d="m 4396.3438,417.58093 c -1.3855,0.007 -2.7814,0.0183 -4.1562,0.0625 -38.4945,1.23675 -72.6482,16.13232 -98.5938,39.1875 -29.6521,26.34878 -49.3639,62.36246 -60.0312,101.3125 -3.9244,14.32914 -6.6721,29.17863 -8.1876,44.21875 l -27.2812,0 c -1.6658,-50.30156 -16.8021,-97.9896 -50.0312,-131.21875 -39.2365,-39.23636 -82.7265,-52.78414 -120.7188,-52.53125 -17.2692,0.11495 -33.4095,3.08443 -47.5,7.78125 -45.0895,15.02982 -74.2188,44.75 -74.2188,44.75 a 30.007879,30.007879 0 1 0 42.4376,42.4375 c 0,0 20.8707,-20.27982 50.7812,-30.25 29.9105,-9.97018 63.8524,-12.67893 106.7812,30.25 27.6258,27.62563 40.1686,99.32636 24.625,161.5 -7.7716,31.08682 -21.7424,59.1548 -39.4062,78.0625 -17.6638,18.9077 -37.5714,29.21875 -64,29.21875 -30,0 -58.5229,-14.13938 -73.1562,-43.40625 A 30.005285,30.005285 0 1 0 3900,765.76843 c 25.3666,50.73313 76.8438,76.59375 126.8438,76.59375 43.5714,0 81.1638,-19.68895 107.875,-48.28125 26.7112,-28.5923 43.9904,-65.52432 53.7188,-104.4375 2.2439,-8.97591 4.1246,-18.09791 5.625,-27.28125 l 32,0 c 5.9517,46.97665 24.9961,92.18359 59.5624,126.75 57.0712,57.07107 123.1293,59.77982 168.2188,44.75 45.0895,-15.02982 74.2188,-44.75 74.2188,-44.75 a 30.003,30.003 0 1 0 -42.4376,-42.40625 c 0,0 -20.8707,20.27982 -50.7812,30.25 -29.9105,9.97018 -63.8524,12.67893 -106.7812,-30.25 -40.7133,-40.71324 -52.9141,-113.24266 -36.625,-172.71875 8.1444,-29.73805 23.0048,-55.43351 42,-72.3125 18.9951,-16.87899 41.3643,-25.93859 71.3124,-23.84375 32.7356,2.28981 60.8838,14.7673 75.25,43.5 a 30.01227,30.01227 0 1 0 53.6876,-26.84375 c -25.6338,-51.2673 -77.6807,-73.20755 -124.75,-76.5 -4.2485,-0.29717 -8.4372,-0.42728 -12.5938,-0.40625 z"
       inkscape:connector-curvature="0" />
    <path
       id="r"
       style="font-size:medium;font-style:normal;font-variant:normal;font-weight:normal;font-stretch:normal;text-indent:0;text-align:start;text-decoration:none;line-height:normal;letter-spacing:normal;word-spacing:normal;text-transform:none;direction:ltr;block-progression:tb;writing-mode:lr-tb;text-anchor:start;baseline-shift:baseline;color:#000000;fill:#000000;fill-opacity:1;stroke:none;stroke-width:60;marker:none;visibility:visible;display:inline;overflow:visible;enable-background:accumulate;font-family:Sans;-inkscape-font-specification:Sans"
       d="m 5187.875,165.95593 c -1.3226,0.002 -2.6405,0.0195 -3.9687,0.0625 -2.8338,0.0917 -5.6771,0.28217 -8.5313,0.5625 -45.668,4.48525 -91.5784,35.21958 -120.1563,92.375 a 30.005285,30.005285 0 1 0 53.6876,26.8125 c 21.4221,-42.84458 48.0117,-57.11025 72.3437,-59.5 24.332,-2.38975 48.3196,8.90782 61.9375,26.78125 13.6179,17.87343 18.7604,40.32401 3.4062,70.3125 -15.354,29.98849 -55.0997,67.95098 -135.9687,101.25 a 30.003,30.003 0 0 0 -18.5625,27.75 l 0,96.09375 a 30.003,30.003 0 0 0 0,8.09375 l 0,255.8125 a 30.003,30.003 0 1 0 60,0 l 0,-247.65625 c 13.1078,-12.62715 42.0699,-38.04136 76.3438,-52.0625 23.3717,-9.56123 47.5961,-13.57105 71.5937,-7.21875 23.9976,6.3523 50.0806,23.07402 77.0937,63.59375 a 30.014524,30.014524 0 1 0 49.9376,-33.3125 c -32.9869,-49.48027 -71.9039,-77.75855 -111.6563,-88.28125 -39.7524,-10.5227 -78.028,-3.28252 -109.6563,9.65625 -20.3482,8.32434 -38.2842,19.10175 -53.6562,29.875 l 0,-14.875 c 77.9308,-35.09215 125.091,-76.66073 147.9688,-121.34375 24.6458,-48.13651 17.2883,-99.43593 -9.0938,-134.0625 -23.9604,-31.44796 -62.0623,-50.79016 -103.0625,-50.71875 z" />
    <path
       id="z"
       style="font-size:medium;font-style:normal;font-variant:normal;font-weight:normal;font-stretch:normal;text-indent:0;text-align:start;text-decoration:none;line-height:normal;letter-spacing:normal;word-spacing:normal;text-transform:none;direction:ltr;block-progression:tb;writing-mode:lr-tb;text-anchor:start;baseline-shift:baseline;color:#000000;fill:#000000;fill-opacity:1;stroke:none;stroke-width:60;marker:none;visibility:visible;display:inline;overflow:visible;enable-background:accumulate;font-family:Sans;-inkscape-font-specification:Sans"
       d="m 5609.5625,423.51843 c -7.854,0.11449 -15.6125,3.4615 -21.0851,9.0961 -5.4726,5.6346 -8.592,13.48741 -8.4774,21.3414 l 0,360 c 0,6.20122 1.9867,12.38667 5.5921,17.43208 3.6054,5.0454 8.8146,8.92637 14.6806,10.93749 5.8661,2.01112 12.3607,2.14266 18.3033,0.37073 5.9427,-1.77193 11.3047,-5.43878 15.1115,-10.33405 L 5860,541.39343 l 0,272.5625 c -0.1121,7.92469 3.0708,15.84542 8.6352,21.48906 5.5644,5.64364 13.4393,8.9382 21.3648,8.9382 7.9255,0 15.8004,-3.29456 21.3648,-8.9382 5.5644,-5.64364 8.7473,-13.56437 8.6352,-21.48906 l 0,-360 c -0,-6.20122 -1.9867,-12.38667 -5.5921,-17.43208 -3.6054,-5.0454 -8.8146,-8.92637 -14.6806,-10.93749 -5.8661,-2.01112 -12.3607,-2.14266 -18.3033,-0.37073 -5.9427,1.77193 -11.3047,5.43878 -15.1115,10.33405 L 5640,726.51843 l 0,-272.5625 c 0.1167,-7.99982 -3.1272,-15.99569 -8.7845,-21.65302 -5.6573,-5.65733 -13.6532,-8.9012 -21.653,-8.78448 z m 70,428.40625 c -7.854,0.11449 -15.6125,3.4615 -21.0851,9.0961 -5.4726,5.6346 -8.592,13.48741 -8.4774,21.3414 l 0,44.57274 c -0.1121,7.92469 3.0708,15.84542 8.6352,21.48906 5.5644,5.64365 13.4393,8.9382 21.3648,8.9382 7.9255,0 15.8004,-3.29455 21.3648,-8.9382 5.5644,-5.64364 8.7473,-13.56437 8.6352,-21.48906 l 0,-44.57274 c 0.1167,-7.99982 -3.1272,-15.99569 -8.7845,-21.65302 -5.6573,-5.65733 -13.6532,-8.9012 -21.653,-8.78448 z m 140,0 c -7.854,0.11449 -15.6125,3.4615 -21.0851,9.0961 -5.4726,5.6346 -8.592,13.48741 -8.4774,21.3414 l 0,44.57274 c -0.1121,7.92469 3.0708,15.84542 8.6352,21.48906 5.5644,5.64365 13.4393,8.9382 21.3648,8.9382 7.9255,0 15.8004,-3.29455 21.3648,-8.9382 5.5644,-5.64364 8.7473,-13.56437 8.6352,-21.48906 l 0,-44.57274 c 0.1167,-7.99982 -3.1272,-15.99569 -8.7845,-21.65302 -5.6573,-5.65733 -13.6532,-8.9012 -21.653,-8.78448 z"
       inkscape:connector-curvature="0"
       sodipodi:nodetypes="csccssscccsssccssscccsccsccsssccsccsccsssccsc" />
    <path
       id="m"
       style="font-size:medium;font-style:normal;font-variant:normal;font-weight:normal;font-stretch:normal;text-indent:0;text-align:start;text-decoration:none;line-height:normal;letter-spacing:normal;word-spacing:normal;text-transform:none;direction:ltr;block-progression:tb;writing-mode:lr-tb;text-anchor:start;baseline-shift:baseline;color:#000000;fill:#000000;fill-opacity:1;stroke:none;stroke-width:60;marker:none;visibility:visible;display:inline;overflow:visible;enable-background:accumulate;font-family:Sans;-inkscape-font-specification:Sans"
       d="m 6280.3127,165.98718 c -1.5401,-0.0209 -3.091,-0.001 -4.625,0.0313 -24.5436,0.51784 -48.2206,7.77501 -68.3125,19.09375 -40.1837,22.63747 -70.3851,58.87394 -83.3438,97.75 a 30.01204,30.01204 0 1 0 56.9376,19 c 7.0412,-21.12394 29.6326,-49.70275 55.8437,-64.46875 26.2111,-14.766 51.6252,-18.33324 79.0313,-0.0625 23.2794,15.51973 27.9062,28.60268 27.9062,46.28125 0,17.67857 -8.5576,40.96064 -21.9688,63.3125 -20.3235,33.87261 -49.5119,63.98226 -62.5,76.625 -63.1925,5.38521 -123.0095,45.05759 -154.2812,109.625 a 30.003,30.003 0 0 0 -0.7812,1.75 30.003,30.003 0 0 0 -0.094,0.15625 30.003,30.003 0 0 0 -0.9062,1.875 c -46.3107,100.48631 -13.8678,223.29321 77.0624,279.03125 92.2544,56.5496 210.8409,16.48192 259.7188,-84.4375 48.8779,-100.91942 16.9731,-226.2629 -75.2812,-282.8125 -10.3887,-6.368 -21.1158,-11.49809 -32.0313,-15.46875 13.3381,-15.51913 27.9611,-34.51855 40.5313,-55.46875 16.5888,-27.64814 30.5312,-59.36607 30.5312,-94.1875 0,-34.82143 -17.8733,-71.73848 -54.5938,-96.21875 -22.038,-14.69211 -45.7418,-21.09206 -68.8437,-21.40625 z m -13.3437,315.84375 a 30.015751,30.015751 0 0 0 10.5937,0.0937 c 18.8231,1.07658 37.8502,6.95827 55.8125,17.96875 62.9355,38.57787 88.3049,131.83089 52.625,205.5 -35.6799,73.66911 -111.4395,98.01537 -174.375,59.4375 -62.0063,-38.00829 -87.7926,-129.2902 -53.9375,-202.75 a 30.003,30.003 0 0 0 0.375,-0.90625 30.003,30.003 0 0 0 0,-0.0313 30.003,30.003 0 0 0 0.9375,-1.8125 c 23.5773,-48.68055 64.6558,-75.81751 107.9688,-77.5 z" />
    <path
       style="font-size:medium;font-style:normal;font-variant:normal;font-weight:normal;font-stretch:normal;text-indent:0;text-align:start;text-decoration:none;line-height:normal;letter-spacing:normal;word-spacing:normal;text-transform:none;direction:ltr;block-progression:tb;writing-mode:lr-tb;text-anchor:start;baseline-shift:baseline;color:#000000;fill:#000000;fill-opacity:1;stroke:none;stroke-width:60;marker:none;visibility:visible;display:inline;overflow:visible;enable-background:accumulate;font-family:Sans;-inkscape-font-specification:Sans"
       d="m 6120.9688,1462.9247 c -68.2944,0.2365 -134.8652,40.8679 -168.4688,110.25 a 30.003,30.003 0 0 0 -0.7812,1.75 30.003,30.003 0 0 0 -0.094,0.1562 30.003,30.003 0 0 0 -0.9062,1.875 c -46.3107,100.4863 -13.8679,223.2932 77.0624,279.0313 92.2544,56.5496 210.8409,16.4819 259.7188,-84.4375 48.8779,-100.9194 16.9731,-226.2629 -75.2812,-282.8125 -28.8295,-17.6718 -60.2071,-25.92 -91.25,-25.8125 z m -1.25,58.8125 c 20.5572,0.1807 41.4889,6.1006 61.1562,18.1562 62.9355,38.5779 88.3049,131.8309 52.625,205.5 -35.6799,73.6691 -111.4395,98.0154 -174.375,59.4375 -62.0063,-38.0083 -87.7926,-129.2902 -53.9375,-202.75 a 30.003,30.003 0 0 0 0.375,-0.9062 30.003,30.003 0 0 0 0,-0.031 30.003,30.003 0 0 0 0.9375,-1.8125 c 24.5299,-50.6475 67.9929,-77.9914 113.2188,-77.5938 z"
       id="path4011-9"
       inkscape:connector-curvature="0" />
    <path
       id="n"
       style="font-size:medium;font-style:normal;font-variant:normal;font-weight:normal;font-stretch:normal;text-indent:0;text-align:start;text-decoration:none;line-height:normal;letter-spacing:normal;word-spacing:normal;text-transform:none;direction:ltr;block-progression:tb;writing-mode:lr-tb;text-anchor:start;baseline-shift:baseline;color:#000000;fill:#000000;fill-opacity:1;stroke:none;stroke-width:60;marker:none;visibility:visible;display:inline;overflow:visible;enable-background:accumulate;font-family:Sans;-inkscape-font-specification:Sans"
       d="m 7071.1875,421.92468 a 30.003,30.003 0 0 0 -29.5625,30.4375 l 0,175.15625 a 30.003,30.003 0 0 0 0,9.65625 l 0,175.1875 a 30.003,30.003 0 1 0 60,0 l 0,-150 82.1875,0 c 7.4396,63.46433 41.122,122.23 96.4687,156.15625 92.2544,56.5496 210.8409,16.4819 259.7188,-84.4375 48.8779,-100.9194 16.9731,-226.2629 -75.2812,-282.8125 -28.8295,-17.6718 -60.2071,-25.92 -91.25,-25.8125 -68.2944,0.2365 -134.8652,40.8679 -168.4688,110.25 a 30.003,30.003 0 0 0 -0.7812,1.75 30.003,30.003 0 0 0 -0.094,0.15625 30.003,30.003 0 0 0 -0.9062,1.875 c -9.352,20.29261 -15.4979,41.49803 -18.5936,62.875 l -83,0 0,-150 a 30.003,30.003 0 0 0 -30.4375,-30.4375 z m 301.0313,62.34375 c 20.5572,0.1807 41.4889,6.10065 61.1562,18.15625 62.9355,38.5779 88.3049,131.8309 52.625,205.5 -35.6799,73.6691 -111.4395,98.0154 -174.375,59.4375 -62.0063,-38.0083 -87.7926,-129.2902 -53.9375,-202.75 a 30.003,30.003 0 0 0 0.375,-0.90625 30.003,30.003 0 0 0 0,-0.0313 30.003,30.003 0 0 0 0.9375,-1.8125 c 24.5299,-50.6475 67.9929,-77.99135 113.2188,-77.59375 z" />
    <path
       id="long_r"
       style="font-size:medium;font-style:normal;font-variant:normal;font-weight:normal;font-stretch:normal;text-indent:0;text-align:start;text-decoration:none;line-height:normal;letter-spacing:normal;word-spacing:normal;text-transform:none;direction:ltr;block-progression:tb;writing-mode:lr-tb;text-anchor:start;baseline-shift:baseline;color:#000000;fill:#000000;fill-opacity:1;stroke:none;stroke-width:60;marker:none;visibility:visible;display:inline;overflow:visible;enable-background:accumulate;font-family:Sans;-inkscape-font-specification:Sans"
       d="m 8004.5313,141.92468 a 30.003,30.003 0 0 0 -29.5625,30.4375 l 0,280 0,40 0,56.09375 c -0.365,2.68144 -0.365,5.41231 0,8.09375 l 0,255.8125 c -0.1121,7.92469 3.0606,15.85636 8.625,21.5 5.5644,5.64364 13.4495,8.9375 21.375,8.9375 7.9255,0 15.8106,-3.29386 21.375,-8.9375 5.5644,-5.64364 8.7371,-13.57531 8.625,-21.5 l 0,-247.65625 c 13.1078,-12.62715 42.0699,-38.04136 76.3438,-52.0625 23.3716,-9.56123 47.5961,-13.57105 71.5937,-7.21875 23.9976,6.3523 50.0806,23.07402 77.0937,63.59375 4.3601,6.53786 11.3876,11.24185 19.0938,12.78125 7.7061,1.53941 15.994,-0.10782 22.5312,-4.46875 6.5373,-4.36094 11.2429,-11.38742 12.7813,-19.09375 1.5385,-7.70632 -0.1071,-15.99446 -4.4687,-22.53125 -32.9869,-49.48027 -71.9039,-77.75855 -111.6563,-88.28125 -39.7524,-10.5227 -78.028,-3.28252 -109.6563,9.65625 -20.3482,8.32434 -38.2842,19.10175 -53.6562,29.875 l 0,-14.875 0,-299.71875 a 30.003,30.003 0 0 0 -30.4375,-30.4375 z" />
    <path
       id="l"
       style="font-size:medium;font-style:normal;font-variant:normal;font-weight:normal;font-stretch:normal;text-indent:0;text-align:start;text-decoration:none;line-height:normal;letter-spacing:normal;word-spacing:normal;text-transform:none;direction:ltr;block-progression:tb;writing-mode:lr-tb;text-anchor:start;baseline-shift:baseline;color:#000000;fill:#000000;fill-opacity:1;stroke:none;stroke-width:60;marker:none;visibility:visible;display:inline;overflow:visible;enable-background:accumulate;font-family:Sans;-inkscape-font-specification:Sans"
       d="m 8687.9376,422.29968 c -18.1173,10e-4 -36.0786,1.40918 -53.4376,4.09375 -46.2906,7.15886 -88.7485,22.79998 -118.3437,51.3125 a 30.003,30.003 0 1 0 41.625,43.1875 c 15.7093,-15.13462 47.9867,-29.3593 85.875,-35.21875 37.8883,-5.85945 80.987,-3.98808 117.6563,6.5 36.6692,10.48808 58.0104,27.81884 64.5312,39.4375 6.5208,11.61866 7.1468,17.08413 -8.5625,32.21875 -16.3414,15.74354 -52.6164,31.57792 -96.4687,36.625 a 30.010024,30.010024 0 0 0 -18.5,50.21875 30.010024,30.010024 0 0 0 0.1874,0.21875 30.010024,30.010024 0 0 0 20.1563,11.28125 c 43.8524,5.04708 80.1274,20.88146 96.4687,36.625 15.7094,15.13462 15.0834,20.60009 8.5626,32.21875 -6.5209,11.61866 -27.862,28.94942 -64.5313,39.4375 -36.6692,10.48808 -79.7679,12.35945 -117.6563,6.5 -37.8883,-5.85945 -70.1656,-20.08413 -85.875,-35.21875 A 30.003,30.003 0 1 0 8518,784.92468 c 29.5952,28.51252 72.0532,44.15364 118.3438,51.3125 17.3589,2.68457 35.3202,4.09275 53.4375,4.09375 30.1957,0.002 60.8258,-3.87888 89.875,-12.1875 46.4788,-13.29379 82.0647,-35.18041 100.3437,-67.75 18.2791,-32.56959 10.3452,-76.26873 -19.25,-104.78125 -9.9496,-9.58563 -21.4883,-17.7979 -34.3124,-24.78125 12.0928,-6.76446 22.9949,-14.6853 32.4687,-23.8125 29.5952,-28.51252 37.5291,-72.21166 19.25,-104.78125 -18.2791,-32.56959 -53.8649,-54.45621 -100.3437,-67.75 -29.0492,-8.30862 -59.6793,-12.18958 -89.875,-12.1875 z" />
    <path
       id="j"
       style="font-size:medium;font-style:normal;font-variant:normal;font-weight:normal;font-stretch:normal;text-indent:0;text-align:start;text-decoration:none;line-height:normal;letter-spacing:normal;word-spacing:normal;text-transform:none;direction:ltr;block-progression:tb;writing-mode:lr-tb;text-anchor:start;baseline-shift:baseline;color:#000000;fill:#000000;fill-opacity:1;stroke:none;stroke-width:60;marker:none;visibility:visible;display:inline;overflow:visible;enable-background:accumulate;font-family:Sans;-inkscape-font-specification:Sans"
       d="m 9210.2187,421.92468 a 30.003,30.003 0 0 0 -29.5625,30.4375 l 0,260 c 0,43.57143 20.2181,79.9475 49.0938,102.40625 28.8755,22.45875 65.0729,32.59375 100.9062,32.59375 31.451,0 63.1849,-7.77979 90,-24.875 l 0,189.87502 a 30.003,30.003 0 1 0 60,0 l 0,-280.00002 a 30.003,30.003 0 0 0 -0.6562,-6.625 c 0.4256,-4.3746 0.6562,-8.83668 0.6562,-13.375 l 0,-260 a 30.003,30.003 0 1 0 -60,0 l 0,260 c 0,26.42857 -9.7819,42.52125 -25.9062,55.0625 -16.1245,12.54125 -39.9271,19.9375 -64.0938,19.9375 -24.1667,0 -47.9693,-7.39625 -64.0938,-19.9375 -16.1243,-12.54125 -25.9062,-28.63393 -25.9062,-55.0625 l 0,-260 a 30.003,30.003 0 0 0 -30.4375,-30.4375 z" />
    <path
       id="w"
       style="font-size:medium;font-style:normal;font-variant:normal;font-weight:normal;font-stretch:normal;text-indent:0;text-align:start;text-decoration:none;line-height:normal;letter-spacing:normal;word-spacing:normal;text-transform:none;direction:ltr;block-progression:tb;writing-mode:lr-tb;text-anchor:start;baseline-shift:baseline;color:#000000;fill:#000000;fill-opacity:1;stroke:none;stroke-width:60;marker:none;visibility:visible;display:inline;overflow:visible;enable-background:accumulate;font-family:Sans;-inkscape-font-specification:Sans"
       d="m 9853.4688,422.9247 c -68.2944,0.2365 -134.8652,40.8679 -168.4688,110.25 a 30.003,30.003 0 0 0 -0.7812,1.75 30.003,30.003 0 0 0 -0.094,0.1562 30.003,30.003 0 0 0 -0.9062,1.875 c -46.3107,100.4863 -13.8679,223.2932 77.0624,279.0313 92.2544,56.5496 210.8409,16.4819 259.719,-84.4375 48.878,-100.9194 16.973,-226.2629 -75.2814,-282.8125 -28.8295,-17.6718 -60.2071,-25.92 -91.25,-25.8125 z m -1.25,58.8125 c 20.5572,0.1807 41.4889,6.1006 61.1562,18.1562 62.936,38.5779 88.305,131.8309 52.625,205.5 -35.6799,73.6691 -111.4395,98.0154 -174.375,59.4375 -62.0063,-38.0083 -87.7926,-129.2902 -53.9375,-202.75 a 30.003,30.003 0 0 0 0.375,-0.9062 30.003,30.003 0 0 0 0,-0.031 30.003,30.003 0 0 0 0.9375,-1.8125 c 24.5299,-50.6475 67.9929,-77.9914 113.2188,-77.5938 z" />
    <path
       id="b"
       style="font-size:medium;font-style:normal;font-variant:normal;font-weight:normal;font-stretch:normal;text-indent:0;text-align:start;text-decoration:none;line-height:normal;letter-spacing:normal;word-spacing:normal;text-transform:none;direction:ltr;block-progression:tb;writing-mode:lr-tb;text-anchor:start;baseline-shift:baseline;color:#000000;fill:#000000;fill-opacity:1;stroke:none;stroke-width:60;marker:none;visibility:visible;display:inline;overflow:visible;enable-background:accumulate;font-family:Sans;-inkscape-font-specification:Sans"
       d="m 10329.558,221.92468 a 30.003,30.003 0 0 0 -29.562,30.4375 l 0,174.75 c -55.865,11.04795 -106.93,48.91968 -135,106.875 a 30.003,30.003 0 0 0 -0.781,1.75 30.003,30.003 0 0 0 -0.09,0.15625 30.003,30.003 0 0 0 -0.906,1.875 c -46.311,100.4863 -13.868,223.29315 77.062,279.03125 92.254,56.5496 210.841,16.4819 259.719,-84.4375 48.878,-100.9194 16.973,-226.2629 -75.281,-282.8125 -20.624,-12.64186 -42.543,-20.45605 -64.719,-23.84375 l 0,-173.34375 a 30.003,30.003 0 0 0 -30.438,-30.4375 z m 3.876,260.65625 c 20.163,0.40024 40.66,6.30831 59.937,18.125 62.936,38.5779 88.305,131.8309 52.625,205.5 -35.68,73.6691 -111.439,98.0154 -174.375,59.4375 -62.006,-38.0083 -87.793,-129.2902 -53.937,-202.75 a 30.003,30.003 0 0 0 0.374,-0.90625 30.003,30.003 0 0 0 0,-0.0313 30.003,30.003 0 0 0 0.938,-1.8125 c 23.605,-48.73677 64.725,-75.90574 108.094,-77.53125 a 30.003,30.003 0 0 0 6.344,-0.0313 z" />
    <path
       id="vh"
       style="font-size:medium;font-style:normal;font-variant:normal;font-weight:normal;font-stretch:normal;text-indent:0;text-align:start;text-decoration:none;line-height:normal;letter-spacing:normal;word-spacing:normal;text-transform:none;direction:ltr;block-progression:tb;writing-mode:lr-tb;text-anchor:start;baseline-shift:baseline;color:#000000;fill:#000000;fill-opacity:1;stroke:none;stroke-width:60;marker:none;visibility:visible;display:inline;overflow:visible;enable-background:accumulate;font-family:Sans;-inkscape-font-specification:Sans"
       d="m 11149.562,201.92468 c -7.853,0.11462 -15.62,3.45915 -21.093,9.09375 -5.472,5.63459 -8.584,13.48984 -8.469,21.34375 l 0,120 c -0.112,7.92469 3.061,15.85636 8.625,21.5 5.565,5.64364 13.45,8.9375 21.375,8.9375 7.925,0 15.81,-3.29386 21.375,-8.9375 5.564,-5.64364 8.737,-13.57531 8.625,-21.5 l 0,-120 c 0.117,-7.9999 -3.123,-15.99891 -8.781,-21.65625 -5.657,-5.65734 -13.657,-8.8981 -21.657,-8.78125 z M 11030,417.36218 c -35.833,0 -72.031,10.10375 -100.906,32.5625 -28.876,22.45875 -49.094,58.86607 -49.094,102.4375 l 0,260 a 30.003,30.003 0 1 0 60,0 l 0,-260 c 0,-26.42857 9.782,-42.5525 25.906,-55.09375 16.125,-12.54125 39.927,-19.90625 64.094,-19.90625 24.167,0 47.969,7.365 64.094,19.90625 16.124,12.54125 25.906,28.66518 25.906,55.09375 l 0,260 a 30.003,30.003 0 0 0 27.469,30.34375 30.003,30.003 0 0 0 2.969,0.0937 30.003,30.003 0 0 0 29.562,-30.43745 l 0,-260 c 0,-26.42857 9.782,-42.5525 25.906,-55.09375 16.125,-12.54125 39.927,-19.90625 64.094,-19.90625 24.167,0 47.969,7.365 64.094,19.90625 16.124,12.54125 25.906,28.66518 25.906,55.09375 l 0,238.75 -320,112.9375 a 30.003,30.003 0 0 0 3.125,57.5 l 340,80.00002 a 30.003,30.003 0 1 0 13.75,-58.40627 l -240.375,-56.5625 243.5,-85.9375 a 30.003,30.003 0 0 0 20,-28.28125 l 0,-260 c 0,-43.57143 -20.218,-79.97875 -49.094,-102.4375 -28.875,-22.45875 -65.073,-32.5625 -100.906,-32.5625 -35.833,0 -72.031,10.10375 -100.906,32.5625 -6.916,5.37914 -13.33,11.58248 -19.094,18.46875 -5.764,-6.88627 -12.178,-13.08961 -19.094,-18.46875 -28.875,-22.45875 -65.073,-32.5625 -100.906,-32.5625 z" />
    <path
       id="v"
       style="font-size:medium;font-style:normal;font-variant:normal;font-weight:normal;font-stretch:normal;text-indent:0;text-align:start;text-decoration:none;line-height:normal;letter-spacing:normal;word-spacing:normal;text-transform:none;direction:ltr;block-progression:tb;writing-mode:lr-tb;text-anchor:start;baseline-shift:baseline;color:#000000;fill:#000000;fill-opacity:1;stroke:none;stroke-width:60;marker:none;visibility:visible;display:inline;overflow:visible;enable-background:accumulate;font-family:Sans;-inkscape-font-specification:Sans"
       d="m 11870,417.36218 c -35.833,0 -72.031,10.10375 -100.906,32.5625 -28.876,22.45875 -49.094,58.86607 -49.094,102.4375 l 0,260 a 30.003,30.003 0 1 0 60,0 l 0,-260 c 0,-26.42857 9.782,-42.5525 25.906,-55.09375 16.125,-12.54125 39.927,-19.90625 64.094,-19.90625 24.167,0 47.969,7.365 64.094,19.90625 16.124,12.54125 25.906,28.66518 25.906,55.09375 l 0,241.4375 -223.406,111.71875 a 30.003,30.003 0 0 0 3.906,55.28125 l 240,80.00002 a 30.003,30.003 0 1 0 19,-56.90627 l -171.312,-57.09375 175.218,-87.625 a 30.003,30.003 0 0 0 16.594,-26.8125 l 0,-260 c 0,-43.57143 -20.218,-79.97875 -49.094,-102.4375 -28.875,-22.45875 -65.073,-32.5625 -100.906,-32.5625 z" />
    <path
       id="d"
       style="font-size:medium;font-style:normal;font-variant:normal;font-weight:normal;font-stretch:normal;text-indent:0;text-align:start;text-decoration:none;line-height:normal;letter-spacing:normal;word-spacing:normal;text-transform:none;direction:ltr;block-progression:tb;writing-mode:lr-tb;text-anchor:start;baseline-shift:baseline;color:#000000;fill:#000000;fill-opacity:1;stroke:none;stroke-width:60;marker:none;visibility:visible;display:inline;overflow:visible;enable-background:accumulate;font-family:Sans;-inkscape-font-specification:Sans"
       d="m 12249.562,421.92468 a 30.003,30.003 0 0 0 -29.562,30.4375 l 0,260 c 0,43.57143 20.218,79.9475 49.094,102.40625 28.875,22.45875 65.073,32.59375 100.906,32.59375 35.833,0 72.031,-10.135 100.906,-32.59375 6.916,-5.37914 13.33,-11.55395 19.094,-18.4375 5.764,6.88355 12.178,13.05836 19.094,18.4375 28.875,22.45875 65.073,32.59375 100.906,32.59375 35.833,0 72.031,-10.135 100.906,-32.59375 28.876,-22.45875 49.094,-58.83482 49.094,-102.40625 l 0,-260 a 30.003,30.003 0 1 0 -60,0 l 0,260 c 0,26.42857 -9.782,42.52125 -25.906,55.0625 -16.125,12.54125 -39.927,19.9375 -64.094,19.9375 -24.167,0 -47.969,-7.39625 -64.094,-19.9375 -16.124,-12.54125 -25.906,-28.63393 -25.906,-55.0625 l 0,-260 a 30.003,30.003 0 0 0 -0.09,-2.96875 30.003,30.003 0 0 0 -10.937,-20.6875 30.003,30.003 0 0 0 -2.407,-1.78125 30.003,30.003 0 0 0 -14.031,-4.875 30.003,30.003 0 0 0 -2.969,-0.125 30.003,30.003 0 0 0 -3,0.21875 30.003,30.003 0 0 0 -5.874,1.28125 30.003,30.003 0 0 0 -5.469,2.40625 30.003,30.003 0 0 0 -4.875,3.4375 30.003,30.003 0 0 0 -0.03,0.0313 30.003,30.003 0 0 0 -0.06,0.0625 30.003,30.003 0 0 0 -2.062,2 30.003,30.003 0 0 0 -1.969,2.28125 30.003,30.003 0 0 0 -2.625,4.15625 30.003,30.003 0 0 0 -0.532,0.90625 30.003,30.003 0 0 0 0,0.0313 30.003,30.003 0 0 0 -2.093,5.59375 30.003,30.003 0 0 0 0,0.0313 30.003,30.003 0 0 0 -0.594,2.90625 30.003,30.003 0 0 0 0,0.0313 30.003,30.003 0 0 0 -0.344,2.9375 30.003,30.003 0 0 0 0,0.0313 30.003,30.003 0 0 0 -0.04,2.0935 l 0,260 c 0,26.42857 -9.782,42.52125 -25.906,55.0625 -16.125,12.54125 -39.927,19.9375 -64.094,19.9375 -24.167,0 -47.969,-7.39625 -64.094,-19.9375 -16.124,-12.54125 -25.906,-28.63393 -25.906,-55.0625 l 0,-260 a 30.003,30.003 0 0 0 -30.438,-30.4375 z" />
    <path
       id="s"
       style="font-size:medium;font-style:normal;font-variant:normal;font-weight:normal;font-stretch:normal;text-indent:0;text-align:start;text-decoration:none;line-height:normal;letter-spacing:normal;word-spacing:normal;text-transform:none;direction:ltr;block-progression:tb;writing-mode:lr-tb;text-anchor:start;baseline-shift:baseline;color:#000000;fill:#000000;fill-opacity:1;stroke:none;stroke-width:60;marker:none;visibility:visible;display:inline;overflow:visible;enable-background:accumulate;font-family:Sans;-inkscape-font-specification:Sans"
       d="m 12899.562,421.92468 a 30.003,30.003 0 0 0 -21.062,9.09375 30.003,30.003 0 0 0 -0.188,0.21875 30.003,30.003 0 0 0 -0.468,0.5 30.003,30.003 0 0 0 -7.844,25.46875 l 0,350.34375 a 30.003,30.003 0 0 0 8.125,25.75 30.003,30.003 0 0 0 0.875,0.90625 30.003,30.003 0 0 0 25.812,8.15625 l 115.188,0 c 59,0 106.849,-28.25057 136.594,-68.40625 29.745,-40.15568 43.406,-91.03819 43.406,-141.59375 0,-50.55556 -13.661,-101.46932 -43.406,-141.625 -29.745,-40.15568 -77.594,-68.375 -136.594,-68.375 l -114.938,0 a 30.003,30.003 0 0 0 -5.5,-0.4375 z m 30.438,60.4375 90,0 c 41,0 68.151,16.74943 88.406,44.09375 20.255,27.34432 31.594,66.46181 31.594,105.90625 0,39.44444 -11.339,78.53068 -31.594,105.875 -20.255,27.34432 -47.406,44.125 -88.406,44.125 l -90,0 0,-300 z" />
    <path
       id="g"
       style="font-size:medium;font-style:normal;font-variant:normal;font-weight:normal;font-stretch:normal;text-indent:0;text-align:start;text-decoration:none;line-height:normal;letter-spacing:normal;word-spacing:normal;text-transform:none;direction:ltr;block-progression:tb;writing-mode:lr-tb;text-anchor:start;baseline-shift:baseline;color:#000000;fill:#000000;fill-opacity:1;stroke:none;stroke-width:60;marker:none;visibility:visible;display:inline;overflow:visible;enable-background:accumulate;font-family:Sans;-inkscape-font-specification:Sans"
       d="m 13530,422.36218 c -7.854,7.9e-4 -15.659,3.23422 -21.212,8.78768 -5.554,5.55345 -8.787,13.35855 -8.788,21.21232 l 0,360 c -0.112,7.92469 3.071,15.84542 8.635,21.48906 5.565,5.64364 13.44,8.9382 21.365,8.9382 7.925,0 15.8,-3.29456 21.365,-8.9382 5.564,-5.64364 8.747,-13.56437 8.635,-21.48906 l 0,-330 260,0 0,330 c -0.112,7.92469 3.071,15.84542 8.635,21.48906 5.565,5.64364 13.44,8.9382 21.365,8.9382 7.925,0 15.8,-3.29456 21.365,-8.9382 5.564,-5.64364 8.747,-13.56437 8.635,-21.48906 l 0,-360 c 0,-7.85377 -3.234,-15.65887 -8.788,-21.21232 -5.553,-5.55346 -13.358,-8.78689 -21.212,-8.78768 z m 100,429.5625 c -7.853,0.11462 -15.62,3.45915 -21.093,9.09375 -5.472,5.63459 -8.584,13.48984 -8.469,21.34375 l 0,45 c -0.112,7.92469 3.061,15.85636 8.625,21.5 5.565,5.64364 13.45,8.9375 21.375,8.9375 7.925,0 15.81,-3.29386 21.375,-8.9375 5.564,-5.64364 8.737,-13.57531 8.625,-21.5 l 0,-45 c 0.117,-7.9999 -3.123,-15.99891 -8.781,-21.65625 -5.657,-5.65734 -13.657,-8.8981 -21.657,-8.78125 z m 120,0 c -7.853,0.11462 -15.62,3.45915 -21.093,9.09375 -5.472,5.63459 -8.584,13.48984 -8.469,21.34375 l 0,45 c -0.112,7.92469 3.061,15.85636 8.625,21.5 5.565,5.64364 13.45,8.9375 21.375,8.9375 7.925,0 15.81,-3.29386 21.375,-8.9375 5.564,-5.64364 8.737,-13.57531 8.625,-21.5 l 0,-45 c 0.117,-7.9999 -3.123,-15.99891 -8.781,-21.65625 -5.657,-5.65734 -13.657,-8.8981 -21.657,-8.78125 z"
       inkscape:connector-curvature="0"
       sodipodi:nodetypes="cccccsccccccsccsccccccccsccccccccccsccccc" />
    <path
       id="dz"
       style="font-size:medium;font-style:normal;font-variant:normal;font-weight:normal;font-stretch:normal;text-indent:0;text-align:start;text-decoration:none;line-height:normal;letter-spacing:normal;word-spacing:normal;text-transform:none;direction:ltr;block-progression:tb;writing-mode:lr-tb;text-anchor:start;baseline-shift:baseline;color:#000000;fill:#000000;fill-opacity:1;stroke:none;stroke-width:60;marker:none;visibility:visible;display:inline;overflow:visible;enable-background:accumulate;font-family:Sans;-inkscape-font-specification:Sans"
       d="m 14469.562,201.92468 c -7.852,0.11462 -15.62,3.45915 -21.093,9.09375 -5.472,5.63459 -8.584,13.48984 -8.469,21.34375 l 0,120 c -0.112,7.92469 3.061,15.85636 8.625,21.5 5.565,5.64364 13.45,8.9375 21.375,8.9375 7.925,0 15.81,-3.29386 21.375,-8.9375 5.564,-5.64364 8.737,-13.57531 8.625,-21.5 l 0,-120 c 0.117,-7.9999 -3.123,-15.99891 -8.781,-21.65625 -5.657,-5.65734 -13.657,-8.8981 -21.657,-8.78125 z M 14350,417.36218 c -35.833,0 -72.031,10.10375 -100.906,32.5625 -28.876,22.45875 -49.094,58.86607 -49.094,102.4375 l 0,260 a 30.003,30.003 0 1 0 60,0 l 0,-260 c 0,-26.42857 9.782,-42.5525 25.906,-55.09375 16.125,-12.54125 39.927,-19.90625 64.094,-19.90625 24.167,0 47.969,7.365 64.094,19.90625 16.124,12.54125 25.906,28.66518 25.906,55.09375 l 0,260 a 30.003,30.003 0 0 0 27.469,30.34375 30.003,30.003 0 0 0 2.969,0.0937 30.003,30.003 0 0 0 29.562,-30.43745 l 0,-260 c 0,-26.42857 9.782,-42.5525 25.906,-55.09375 16.125,-12.54125 39.927,-19.90625 64.094,-19.90625 24.167,0 47.969,7.365 64.094,19.90625 16.124,12.54125 25.906,28.66518 25.906,55.09375 l 0,242.3125 -344.562,191.4375 a 30.005169,30.005169 0 1 0 29.124,52.46872 l 360,-199.99997 A 30.003,30.003 0 0 0 14740,812.36218 l 0,-260 c 0,-43.57143 -20.218,-79.97875 -49.094,-102.4375 -28.875,-22.45875 -65.073,-32.5625 -100.906,-32.5625 -35.833,0 -72.031,10.10375 -100.906,32.5625 -6.916,5.37914 -13.33,11.58248 -19.094,18.46875 -5.764,-6.88627 -12.178,-13.08961 -19.094,-18.46875 -28.875,-22.45875 -65.073,-32.5625 -100.906,-32.5625 z" />
    <path
       id="i"
       style="font-size:medium;font-style:normal;font-variant:normal;font-weight:normal;font-stretch:normal;text-indent:0;text-align:start;text-decoration:none;line-height:normal;letter-spacing:normal;word-spacing:normal;text-transform:none;direction:ltr;block-progression:tb;writing-mode:lr-tb;text-anchor:start;baseline-shift:baseline;color:#000000;fill:#000000;fill-opacity:1;stroke:none;stroke-width:60;marker:none;visibility:visible;display:inline;overflow:visible;enable-background:accumulate;font-family:Sans;-inkscape-font-specification:Sans"
       d="m 15250,417.36218 c -35.833,0 -72.031,10.10375 -100.906,32.5625 -28.876,22.45875 -49.094,58.86607 -49.094,102.4375 l 0,260 a 30.003,30.003 0 1 0 60,0 l 0,-260 c 0,-26.42857 9.782,-42.5525 25.906,-55.09375 16.125,-12.54125 39.927,-19.90625 64.094,-19.90625 24.167,0 47.969,7.365 64.094,19.90625 16.124,12.54125 25.906,28.66518 25.906,55.09375 l 0,260 a 30.003,30.003 0 1 0 60,0 l 0,-260 c 0,-43.57143 -20.218,-79.97875 -49.094,-102.4375 -28.875,-22.45875 -65.073,-32.5625 -100.906,-32.5625 z" />
    <path
       style="fill:none;stroke:#000000;stroke-width:60;stroke-linecap:round;stroke-linejoin:round;stroke-miterlimit:4;stroke-opacity:1;stroke-dasharray:none"
       d="m 15480,1612.3622 c 0,0 0,-180 0,-260 0,-140 240,-140 240,0 l 0,260"
       id="path3763-3-7"
       inkscape:connector-curvature="0"
       sodipodi:nodetypes="cccc" />
    <path
       id="y"
       style="font-size:medium;font-style:normal;font-variant:normal;font-weight:normal;font-stretch:normal;text-indent:0;text-align:start;text-decoration:none;line-height:normal;letter-spacing:normal;word-spacing:normal;text-transform:none;direction:ltr;block-progression:tb;writing-mode:lr-tb;text-anchor:start;baseline-shift:baseline;color:#000000;fill:#000000;fill-opacity:1;stroke:none;stroke-width:60;marker:none;visibility:visible;display:inline;overflow:visible;enable-background:accumulate;font-family:Sans;-inkscape-font-specification:Sans"
       d="m 15873.093,421.92468 c -7.854,0.11462 -15.612,3.46168 -21.085,9.09628 -5.472,5.63459 -8.592,13.48731 -8.477,21.34122 l 0,150 -50.312,0 c -4.648,-44.92514 -20.058,-88.14596 -46.157,-122.8125 -27.683,-36.77079 -66.328,-57.81979 -105.656,-57.15625 -2.622,0.0442 -5.25,0.1984 -7.875,0.4375 -42,3.82559 -80.084,31.56719 -105.688,74.9375 -3.993,6.76597 -5.176,15.13423 -3.215,22.74206 1.96,7.60782 7.041,14.36149 13.808,18.35414 6.766,3.99266 15.134,5.17513 22.742,3.21354 7.608,-1.96159 14.361,-7.04309 18.353,-13.80974 18.333,-31.05555 40.129,-43.92872 59.438,-45.6875 19.308,-1.75878 40.068,6.38028 60.156,33.0625 40.176,53.36444 45.072,158.70141 8.406,220.8125 -18.333,31.05555 -40.129,43.92872 -59.438,45.6875 -19.308,1.75878 -40.068,-6.38028 -60.156,-33.0625 -1.545,-2.05293 -3.051,-4.20184 -4.531,-6.4375 -4.298,-6.63358 -11.319,-11.44379 -19.057,-13.05691 -7.738,-1.61312 -16.095,-0.009 -22.686,4.35484 -6.591,4.36361 -11.331,11.43142 -12.867,19.18497 -1.537,7.75356 0.15,16.09498 4.579,22.6421 2.131,3.2193 4.333,6.36225 6.625,9.40625 29.529,39.2222 71.531,60.54435 113.531,56.71875 42,-3.8255 80.084,-31.56719 105.688,-74.9375 18.569,-31.45556 29.807,-67.58603 33.812,-104.59375 l 50.5,0 0,150 c -0.112,7.92469 3.071,15.84542 8.635,21.48906 5.565,5.64364 13.44,8.9382 21.365,8.9382 7.925,0 15.8,-3.29456 21.365,-8.9382 5.564,-5.64364 8.747,-13.56437 8.635,-21.48906 l 0,-175.15625 c 0.52,-3.19067 0.52,-6.46558 0,-9.65625 l 0,-175.1875 c 0.117,-7.9999 -3.127,-15.99586 -8.785,-21.6532 -5.657,-5.65734 -13.653,-8.90115 -21.653,-8.7843 z" />
    <path
       style="font-size:medium;font-style:normal;font-variant:normal;font-weight:normal;font-stretch:normal;text-indent:0;text-align:start;text-decoration:none;line-height:normal;letter-spacing:normal;word-spacing:normal;text-transform:none;direction:ltr;block-progression:tb;writing-mode:lr-tb;text-anchor:start;baseline-shift:baseline;color:#000000;fill:#000000;fill-opacity:1;stroke:none;stroke-width:60;marker:none;visibility:visible;display:inline;overflow:visible;enable-background:accumulate;font-family:Sans;-inkscape-font-specification:Sans"
       d="m 15997.875,1102.3934 c -2.622,0.044 -5.25,0.1984 -7.875,0.4375 -42,3.8256 -80.084,31.5672 -105.688,74.9375 a 30.007913,30.007913 0 1 0 51.688,30.5 c 18.333,-31.0555 40.129,-43.9287 59.438,-45.6875 19.308,-1.7588 40.068,6.3803 60.156,33.0625 40.176,53.3645 45.072,158.7014 8.406,220.8125 -18.333,31.0556 -40.129,43.9287 -59.438,45.6875 -19.308,1.7588 -40.068,-6.3803 -60.156,-33.0625 -1.545,-2.0529 -3.051,-4.2018 -4.531,-6.4375 a 30.003,30.003 0 1 0 -50.031,33.125 c 2.131,3.2193 4.333,6.3623 6.625,9.4063 29.529,39.2222 71.531,60.5443 113.531,56.7187 42,-3.8255 80.084,-31.5672 105.688,-74.9375 51.206,-86.7406 46.901,-208.9619 -12.157,-287.4062 -27.683,-36.7708 -66.328,-57.8198 -105.656,-57.1563 z"
       id="path4473-5"
       inkscape:connector-curvature="0" />
    <path
       id="u"
       style="font-size:medium;font-style:normal;font-variant:normal;font-weight:normal;font-stretch:normal;text-indent:0;text-align:start;text-decoration:none;line-height:normal;letter-spacing:normal;word-spacing:normal;text-transform:none;direction:ltr;block-progression:tb;writing-mode:lr-tb;text-anchor:start;baseline-shift:baseline;color:#000000;fill:#000000;fill-opacity:1;stroke:none;stroke-width:60;marker:none;visibility:visible;display:inline;overflow:visible;enable-background:accumulate;font-family:Sans;-inkscape-font-specification:Sans"
       d="m 16306.75,423.26843 c -56.906,-2.04342 -114.319,21.99956 -154,70.84375 a 30.003,30.003 0 1 0 46.562,37.84375 c 50.384,-62.0176 132.463,-67.34989 189,-12.78125 56.538,54.56864 62.071,151.57615 11.688,213.59375 -50.384,62.0176 -132.463,67.34989 -189,12.78125 -2.177,-2.10051 -4.288,-4.30656 -6.344,-6.5625 a 30.00659,30.00659 0 0 0 -44.344,40.4375 c 2.915,3.19902 5.927,6.28484 9.032,9.28125 80.027,77.24014 206.673,68.74037 277.218,-18.09375 70.545,-86.83412 63.434,-217.35361 -16.594,-294.59375 -35.011,-33.79256 -78.958,-51.16067 -123.218,-52.75 z" />
    <path
       style="font-size:medium;font-style:normal;font-variant:normal;font-weight:normal;font-stretch:normal;text-indent:0;text-align:start;text-decoration:none;line-height:normal;letter-spacing:normal;word-spacing:normal;text-transform:none;direction:ltr;block-progression:tb;writing-mode:lr-tb;text-anchor:start;baseline-shift:baseline;color:#000000;fill:#000000;fill-opacity:1;stroke:none;stroke-width:60;marker:none;visibility:visible;display:inline;overflow:visible;enable-background:accumulate;font-family:Sans;-inkscape-font-specification:Sans"
       d="m 16358.438,1116.4559 c -56.906,-2.0434 -114.319,21.9996 -154,70.8438 a 30.003,30.003 0 1 0 46.562,37.8437 c 50.384,-62.0176 132.463,-67.3499 189,-12.7812 56.538,54.5686 62.071,151.5761 11.688,213.5937 -50.384,62.0176 -132.463,67.3499 -189,12.7813 -2.177,-2.1005 -4.288,-4.3066 -6.344,-6.5625 a 30.00659,30.00659 0 0 0 -44.344,40.4375 c 2.915,3.199 5.927,6.2848 9.032,9.2812 80.027,77.2402 206.673,68.7404 277.218,-18.0937 70.545,-86.8341 63.434,-217.3536 -16.594,-294.5938 -35.011,-33.7925 -78.958,-51.1607 -123.218,-52.75 z"
       id="path4504-9"
       inkscape:connector-curvature="0" />
    <path
       id="o"
       style="font-size:medium;font-style:normal;font-variant:normal;font-weight:normal;font-stretch:normal;text-indent:0;text-align:start;text-decoration:none;line-height:normal;letter-spacing:normal;word-spacing:normal;text-transform:none;direction:ltr;block-progression:tb;writing-mode:lr-tb;text-anchor:start;baseline-shift:baseline;color:#000000;fill:#000000;fill-opacity:1;stroke:none;stroke-width:60;marker:none;visibility:visible;display:inline;overflow:visible;enable-background:accumulate;font-family:Sans;-inkscape-font-specification:Sans"
       d="m 16789.562,423.14343 c -55.141,-0.40133 -110.215,23.65094 -148.656,70.96875 a 30.003,30.003 0 1 0 46.562,37.84375 c 50.384,-62.0176 132.463,-67.34989 189,-12.78125 23.184,22.37596 37.777,51.87848 43.469,83.1875 l -159.031,0 a 30.003,30.003 0 1 0 0,60 l 159.094,0 c -4.591,25.42954 -15.141,49.84656 -31.844,70.40625 -50.384,62.0176 -132.463,67.34989 -189,12.78125 -2.177,-2.10051 -4.288,-4.30656 -6.344,-6.5625 a 30.00659,30.00659 0 0 0 -44.344,40.4375 c 2.916,3.19902 5.927,6.28484 9.032,9.28125 80.027,77.24014 206.673,68.74037 277.218,-18.09375 70.545,-86.83412 63.435,-217.35361 -16.593,-294.59375 -35.011,-33.79256 -78.959,-51.16067 -123.219,-52.75 -1.778,-0.0639 -3.565,-0.11205 -5.344,-0.125 z" />
    <path
       id="e"
       style="font-size:medium;font-style:normal;font-variant:normal;font-weight:normal;font-stretch:normal;text-indent:0;text-align:start;text-decoration:none;line-height:normal;letter-spacing:normal;word-spacing:normal;text-transform:none;direction:ltr;block-progression:tb;writing-mode:lr-tb;text-anchor:start;baseline-shift:baseline;color:#000000;fill:#000000;fill-opacity:1;stroke:none;stroke-width:60;marker:none;visibility:visible;display:inline;overflow:visible;enable-background:accumulate;font-family:Sans;-inkscape-font-specification:Sans"
       d="m 17270,847.36218 c -35.833,0 -72.031,-10.10375 -100.906,-32.5625 -28.876,-22.45875 -49.094,-58.86607 -49.094,-102.4375 l 0,-260 a 30.003,30.003 0 1 1 60,0 l 0,260 c 0,26.42857 9.782,42.5525 25.906,55.09375 16.125,12.54125 39.927,19.90625 64.094,19.90625 24.167,0 47.969,-7.365 64.094,-19.90625 16.124,-12.54125 25.906,-28.66518 25.906,-55.09375 l 0,-260 a 30.003,30.003 0 1 1 60,0 l 0,260 c 0,43.57143 -20.218,79.97875 -49.094,102.4375 -28.875,22.45875 -65.073,32.5625 -100.906,32.5625 z" />
    <path
       id="a"
       style="font-size:medium;font-style:normal;font-variant:normal;font-weight:normal;font-stretch:normal;text-indent:0;text-align:start;text-decoration:none;line-height:normal;letter-spacing:normal;word-spacing:normal;text-transform:none;direction:ltr;block-progression:tb;writing-mode:lr-tb;text-anchor:start;baseline-shift:baseline;color:#000000;fill:#000000;fill-opacity:1;stroke:none;stroke-width:60;marker:none;visibility:visible;display:inline;overflow:visible;enable-background:accumulate;font-family:Sans;-inkscape-font-specification:Sans"
       d="m 17630,422.36218 a 30.003,30.003 0 0 0 -30,30 l 0,360 a 30.003,30.003 0 0 0 40.406,28.53125 30.003,30.003 0 0 0 9.594,1.46875 l 160,0 c 42.857,0 78.805,-18.07432 101.625,-44.96875 22.82,-26.89443 33.375,-61.16761 33.375,-95.03125 0,-33.86364 -10.555,-68.16807 -33.375,-95.0625 -22.82,-26.89443 -58.768,-44.9375 -101.625,-44.9375 l -150,0 0,-80 250,0 a 30.003,30.003 0 1 0 0,-60 l -280,0 z m 30,200 150,0 c 27.143,0 43.695,9.42568 55.875,23.78125 12.18,14.35557 19.125,35.08239 19.125,56.21875 0,21.13636 -6.945,41.83193 -19.125,56.1875 -12.18,14.35557 -28.732,23.8125 -55.875,23.8125 l -150,0 0,-160 z" />
    <path
       style="font-size:medium;font-style:normal;font-variant:normal;font-weight:normal;font-stretch:normal;text-indent:0;text-align:start;text-decoration:none;line-height:normal;letter-spacing:normal;word-spacing:normal;text-transform:none;direction:ltr;block-progression:tb;writing-mode:lr-tb;text-anchor:start;baseline-shift:baseline;color:#000000;fill:#000000;fill-opacity:1;stroke:none;stroke-width:60;marker:none;visibility:visible;display:inline;overflow:visible;enable-background:accumulate;font-family:Sans;-inkscape-font-specification:Sans"
       d="m 18059,782.36218 a 30.003,30.003 0 1 0 0,60 l 1,0 a 30.003,30.003 0 1 0 0,-60 l -1,0 z"
       id="period"
       inkscape:label="#path3053"
       inkscape:connector-curvature="0" />
    <path
       style="font-size:medium;font-style:normal;font-variant:normal;font-weight:normal;font-stretch:normal;text-indent:0;text-align:start;text-decoration:none;line-height:normal;letter-spacing:normal;word-spacing:normal;text-transform:none;direction:ltr;block-progression:tb;writing-mode:lr-tb;text-anchor:start;baseline-shift:baseline;color:#000000;fill:#000000;fill-opacity:1;stroke:none;stroke-width:60;marker:none;visibility:visible;display:inline;overflow:visible;enable-background:accumulate;font-family:Sans;-inkscape-font-specification:Sans"
       d="m 18200,782.48718 a 29.680673,29.742154 0 1 0 0,59.46875 l 1,0 0,45.40625 a 15.0015,15.0015 0 1 0 30,0 l 0,-70 a 15.0015,15.0015 0 0 0 -0.09,-1.84375 29.680673,29.742154 0 0 0 -29.906,-33.03125 l -1,0 z"
       id="comma"
       inkscape:label="#period-3"
       inkscape:connector-curvature="0" />
    <path
       style="font-size:medium;font-style:normal;font-variant:normal;font-weight:normal;font-stretch:normal;text-indent:0;text-align:start;text-decoration:none;line-height:normal;letter-spacing:normal;word-spacing:normal;text-transform:none;direction:ltr;block-progression:tb;writing-mode:lr-tb;text-anchor:start;baseline-shift:baseline;color:#000000;fill:#000000;fill-opacity:1;stroke:none;stroke-width:60;marker:none;visibility:visible;display:inline;overflow:visible;enable-background:accumulate;font-family:Sans;-inkscape-font-specification:Sans"
       d="m 18449.562,172.36218 c -7.854,0.11462 -15.612,3.46168 -21.085,9.09628 -5.472,5.63459 -8.592,13.48731 -8.477,21.34122 l 0,1 c -0.112,7.92469 3.071,15.84542 8.635,21.48906 5.565,5.64364 13.44,8.9382 21.365,8.9382 7.925,0 15.8,-3.29456 21.365,-8.9382 5.564,-5.64364 8.747,-13.56437 8.635,-21.48906 l 0,-1 c 0.117,-7.9999 -3.127,-15.99586 -8.785,-21.6532 -5.657,-5.65734 -13.653,-8.90115 -21.653,-8.7843 z m 0,110.5 c -7.854,0.11462 -15.612,3.46168 -21.085,9.09628 -5.472,5.63459 -8.592,13.48731 -8.477,21.34122 l 0,499.0625 c -0.112,7.92469 3.071,15.84542 8.635,21.48906 5.565,5.64364 13.44,8.9382 21.365,8.9382 7.925,0 15.8,-3.29456 21.365,-8.9382 5.564,-5.64364 8.747,-13.56437 8.635,-21.48906 l 0,-499.0625 c 0.117,-7.9999 -3.127,-15.99586 -8.785,-21.6532 -5.657,-5.65734 -13.653,-8.90115 -21.653,-8.7843 z"
       id="excl"
       inkscape:label="#period-6"
       inkscape:connector-curvature="0"
       sodipodi:nodetypes="csccsssccsccsccsssccsc" />
    <path
       id="ques"
       style="font-size:medium;font-style:normal;font-variant:normal;font-weight:normal;font-stretch:normal;text-indent:0;text-align:start;text-decoration:none;line-height:normal;letter-spacing:normal;word-spacing:normal;text-transform:none;direction:ltr;block-progression:tb;writing-mode:lr-tb;text-anchor:start;baseline-shift:baseline;color:#000000;fill:#000000;fill-opacity:1;stroke:none;stroke-width:60;marker:none;visibility:visible;display:inline;overflow:visible;enable-background:accumulate;font-family:Sans;-inkscape-font-specification:Sans"
       d="M 18950.813,221.95593 A 30.003,30.003 0 0 0 18922,242.86218 c 0,0 -30.637,91.54112 -72.437,198.28125 -41.861,-53.83042 -77.875,-90 -77.875,-90 a 30.008021,30.008021 0 1 0 -42.438,42.4375 c 0,0 46.618,46.74549 94.125,112.5625 -19.112,46.12774 -39.467,92.24785 -59.75,132.8125 -22.273,44.54699 -22.62,89.00462 -7.812,124.09375 14.807,35.08913 42.95,60.45197 74.468,73.84375 31.52,13.39178 68.23,15.51788 99.313,-2.09375 31.083,-17.61163 50.875,-55.06578 50.875,-102.4375 0,-82.72233 -43.232,-165.50705 -89.25,-233.75 49.911,-123.6683 87.719,-236.75 87.719,-236.75 a 30.003,30.003 0 0 0 -28.125,-39.90625 z M 18863,566.79968 c 32.48,55.47119 57.469,115.86177 57.469,165.5625 0,32.62828 -9.693,44.14454 -20.469,50.25 -10.775,6.10546 -28.281,6.69706 -46.25,-0.9375 -17.968,-7.63456 -34.579,-22.79638 -42.656,-41.9375 -8.077,-19.14112 -9.455,-42.62108 6.219,-73.96875 15.48,-30.96057 30.875,-64.65776 45.687,-98.96875 z"
       inkscape:connector-curvature="0" />
    <path
       inkscape:connector-curvature="0"
       id="apos"
       style="font-size:medium;font-style:normal;font-variant:normal;font-weight:normal;font-stretch:normal;text-indent:0;text-align:start;text-decoration:none;line-height:normal;letter-spacing:normal;word-spacing:normal;text-transform:none;direction:ltr;block-progression:tb;writing-mode:lr-tb;text-anchor:start;baseline-shift:baseline;color:#000000;fill:#000000;fill-opacity:1;stroke:none;stroke-width:60;marker:none;visibility:visible;display:inline;overflow:visible;enable-background:accumulate;font-family:Sans;-inkscape-font-specification:Sans"
       d="m 19430.438,141.92468 a 30.003,30.003 0 0 1 29.562,30.4375 l 0,279.99999 0,40 0,56.09375 c 0.365,2.68144 0.365,5.41231 0,8.09375 l 0,255.8125 c 0.112,7.92469 -3.061,15.85636 -8.625,21.5 -5.564,5.64364 -13.449,8.9375 -21.375,8.9375 -7.925,0 -15.811,-3.29386 -21.375,-8.9375 -5.564,-5.64364 -8.737,-13.57531 -8.625,-21.5 l 0,-247.65625 c -13.108,-12.62715 -42.07,-38.04136 -76.344,-52.0625 -23.371,-9.56123 -47.596,-13.57105 -71.593,-7.21875 -23.998,6.3523 -50.081,23.07402 -77.094,63.59375 -4.36,6.53786 -11.388,11.24185 -19.094,12.78125 -7.706,1.53941 -15.994,-0.10782 -22.531,-4.46875 -6.537,-4.36094 -11.243,-11.38742 -12.781,-19.09375 -1.539,-7.70632 0.107,-15.99446 4.468,-22.53125 32.987,-49.48027 71.904,-77.75855 111.657,-88.28125 39.752,-10.5227 78.028,-3.28252 109.656,9.65625 20.348,8.32434 38.284,19.10175 53.656,29.875 l 0,-14.875 0,-299.71874 a 30.003,30.003 0 0 1 30.438,-30.4375 z"
       inkscape:label="#long_r-7" />
    <path
       style="font-size:medium;font-style:normal;font-variant:normal;font-weight:normal;font-stretch:normal;text-indent:0;text-align:start;text-decoration:none;line-height:normal;letter-spacing:normal;word-spacing:normal;text-transform:none;direction:ltr;block-progression:tb;writing-mode:lr-tb;text-anchor:start;baseline-shift:baseline;color:#000000;fill:#000000;fill-opacity:1;stroke:none;stroke-width:60;marker:none;visibility:visible;display:inline;overflow:visible;enable-background:accumulate;font-family:Sans;-inkscape-font-specification:Sans"
       d="m 20256.343,122.76843 c -44.512,0.32116 -89.55,23.715 -124.531,66.84375 -93.282,115.00999 -113.156,325.38659 -53.781,487.25 a 30.003,30.003 0 0 0 1.125,2.75 30.003,30.003 0 0 0 0.03,0.0625 30.003,30.003 0 0 0 0.906,2.6875 c 30.159,78.95518 75.978,133.43915 132.875,152.84375 56.898,19.4046 120.319,-3.34881 166.344,-60.09375 93.282,-115.00999 113.156,-325.38659 53.781,-487.25 -29.687,-80.9317 -75.495,-137.01755 -132.812,-157.59375 -14.329,-5.14405 -29.1,-7.60705 -43.938,-7.5 z m -3.469,59.09375 c 0.777,-0.008 1.568,-0.0185 2.344,0 8.276,0.19691 16.507,1.90453 24.782,4.875 33.098,11.88187 70.96,51.50833 96.75,121.8125 51.577,140.60834 27.67,340.34692 -44.032,428.75 -35.368,43.6059 -67.772,52.22328 -100.406,41.09375 -32.634,-11.12953 -70.051,-49.09457 -96.156,-117.4375 a 30.003,30.003 0 0 0 -1,-2.34375 30.003,30.003 0 0 0 -0.782,-2.4375 c -51.577,-140.60834 -27.67,-340.34692 44.032,-428.75 26.047,-32.11518 50.4,-45.30557 74.468,-45.5625 z"
       id="0"
       inkscape:connector-curvature="0"
       inkscape:label="#path3924" />
    <path
       sodipodi:type="arc"
       style="fill:none;stroke:#000000;stroke-width:60;stroke-linecap:round;stroke-linejoin:round;stroke-miterlimit:4;stroke-opacity:1;stroke-dasharray:none"
       id="path3924-5"
       sodipodi:cx="20340"
       sodipodi:cy="460"
       sodipodi:rx="180"
       sodipodi:ry="330"
       d="m 20190.634,644.15597 c -55.476,-151.23588 -33.575,-356.28621 48.917,-457.99274 82.493,-101.706538 194.338,-61.55507 249.815,89.6808 55.476,151.23588 33.575,356.28621 -48.917,457.99274 -81.393,100.35085 -191.627,62.75623 -247.891,-84.54189"
       transform="translate(-559.99954,1022.3622)"
       sodipodi:start="2.5495606"
       sodipodi:end="8.8138585"
       sodipodi:open="true" />
    <path
       style="font-size:medium;font-style:normal;font-variant:normal;font-weight:normal;font-stretch:normal;text-indent:0;text-align:start;text-decoration:none;line-height:normal;letter-spacing:normal;word-spacing:normal;text-transform:none;direction:ltr;block-progression:tb;writing-mode:lr-tb;text-anchor:start;baseline-shift:baseline;color:#000000;fill:#000000;fill-opacity:1;stroke:none;stroke-width:60;marker:none;visibility:visible;display:inline;overflow:visible;enable-background:accumulate;font-family:Sans;-inkscape-font-specification:Sans"
       d="m 20530,122.36218 a 30.003,30.003 0 0 0 -30,30 l 0,660 a 30.003,30.003 0 1 0 60,0 l 0,-630 330,0 a 30.003,30.003 0 1 0 0,-60 l -360,0 z"
       id="1"
       inkscape:connector-curvature="0" />
    <path
       style="font-size:medium;font-style:normal;font-variant:normal;font-weight:normal;font-stretch:normal;text-indent:0;text-align:start;text-decoration:none;line-height:normal;letter-spacing:normal;word-spacing:normal;text-transform:none;direction:ltr;block-progression:tb;writing-mode:lr-tb;text-anchor:start;baseline-shift:baseline;color:#000000;fill:#000000;fill-opacity:1;stroke:none;stroke-width:60;marker:none;visibility:visible;display:inline;overflow:visible;enable-background:accumulate;font-family:Sans;-inkscape-font-specification:Sans"
       d="m 21143.812,122.36218 c -51.667,0 -103.752,17.06432 -143.688,52.5625 -39.935,35.49818 -66.312,89.9375 -66.312,157.4375 l 0,180 a 30.003,30.003 0 1 0 60,0 l 0,-180 c 0,-52.5 18.623,-88.09193 46.188,-112.59375 27.563,-24.50182 65.479,-37.40625 103.812,-37.40625 38.333,0 76.248,12.90443 103.812,37.40625 27.565,24.50182 46.188,60.09375 46.188,112.59375 a 30.003,30.003 0 1 0 60,0 c 0,-67.5 -26.377,-121.93932 -66.312,-157.4375 -39.937,-35.49818 -92.021,-52.5625 -143.688,-52.5625 z m 179.562,299.5625 a 30.003,30.003 0 0 0 -29.562,30.4375 l 0,180 c 0,52.5 -18.623,88.06068 -46.188,112.5625 -27.563,24.50182 -65.479,37.4375 -103.812,37.4375 -38.333,0 -76.248,-12.93568 -103.812,-37.4375 -27.565,-24.50182 -46.188,-60.0625 -46.188,-112.5625 a 30.003,30.003 0 1 0 -60,0 c 0,67.5 26.377,121.90807 66.312,157.40625 39.937,35.49818 92.021,52.59375 143.688,52.59375 51.667,0 103.752,-17.09557 143.688,-52.59375 39.935,-35.49818 66.312,-89.90625 66.312,-157.40625 l 0,-180 a 30.003,30.003 0 0 0 -30.438,-30.4375 z"
       id="2"
       inkscape:label="#path3763-3-7-3"
       inkscape:connector-curvature="0" />
    <path
       style="font-size:medium;font-style:normal;font-variant:normal;font-weight:normal;font-stretch:normal;text-indent:0;text-align:start;text-decoration:none;line-height:normal;letter-spacing:normal;word-spacing:normal;text-transform:none;direction:ltr;block-progression:tb;writing-mode:lr-tb;text-anchor:start;baseline-shift:baseline;color:#000000;fill:#000000;fill-opacity:1;stroke:none;stroke-width:60;marker:none;visibility:visible;display:inline;overflow:visible;enable-background:accumulate;font-family:Sans;-inkscape-font-specification:Sans"
       d="m 21630.5,112.67468 c -35.321,0.1716 -71.101,8.25349 -103.312,24.5 -42.95,21.66201 -72.853,56.04344 -83.219,95.75 -10.367,39.70656 0.472,83.64927 30.937,117.625 a 30.003,30.003 0 0 0 0.719,0.75 30.003,30.003 0 0 0 0,0.0313 30.003,30.003 0 0 0 1.375,1.53125 c 16.297,17.45351 35.948,31.27011 57.594,41.34375 -6.95,3.22645 -13.768,6.82524 -20.438,10.8125 -95.727,57.22394 -123.078,179.14517 -57.437,265.90625 a 30.003,30.003 0 0 0 0.906,1.125 30.003,30.003 0 0 0 0.09,0.15625 30.003,30.003 0 0 0 1.281,1.6875 c 34.983,44.40526 86.386,71.02504 141,78.09375 l 0,51.5625 a 30.003,30.003 0 1 0 60,0 l 0,-51.65625 c 29.763,-3.96455 59.061,-13.80213 85.844,-29.8125 95.727,-57.22394 123.078,-179.14517 57.437,-265.90625 -20.842,-27.54897 -47.961,-48.52283 -78.312,-62.5 2.63,-1.1993 5.257,-2.44546 7.843,-3.75 42.95,-21.66201 72.853,-56.04344 83.219,-95.75 10.367,-39.70656 -0.472,-83.64927 -30.937,-117.625 -38.082,-42.46966 -95.726,-64.161 -154.594,-63.875 z m -30.5,63.8125 0,173.59375 c -31.881,-5.36571 -60.918,-18.65637 -79.125,-38.15625 a 30.003,30.003 0 0 0 -0.531,-0.53125 30.003,30.003 0 0 0 -0.782,-0.90625 c -18.847,-21.01914 -22.933,-41.83617 -17.562,-62.40625 5.371,-20.57008 21.84,-41.99032 52.219,-57.3125 14.121,-7.12217 29.708,-11.81054 45.781,-14.28125 z m 60,0.59375 c 32.668,5.52246 62.33,19.33837 80.438,39.53125 18.847,21.01914 22.933,41.83617 17.562,62.40625 -5.371,20.57008 -21.84,41.99032 -52.219,57.3125 -14.111,7.11718 -29.694,11.80184 -45.781,14.28125 l 0,-173.53125 z m -60,259.3125 0,254.09375 c -37.086,-6.61213 -71.321,-25.09069 -93.875,-53.71875 a 30.003,30.003 0 0 0 -0.625,-0.75 30.003,30.003 0 0 0 -0.938,-1.28125 c -45.312,-59.89189 -28.883,-136.81817 40.376,-178.21875 17.112,-10.22975 35.857,-16.83063 55.062,-20.125 z m 60,0.25 c 37.978,6.77921 72.947,25.99247 95.438,55.71875 45.312,59.89189 28.883,136.81817 -40.376,178.21875 -17.098,10.22107 -35.845,16.85249 -55.062,20.15625 l 0,-254.09375 z"
       id="3"
       inkscape:connector-curvature="0"
       inkscape:label="#path3999" />
    <path
       style="font-size:medium;font-style:normal;font-variant:normal;font-weight:normal;font-stretch:normal;text-indent:0;text-align:start;text-decoration:none;line-height:normal;letter-spacing:normal;word-spacing:normal;text-transform:none;direction:ltr;block-progression:tb;writing-mode:lr-tb;text-anchor:start;baseline-shift:baseline;color:#000000;fill:#000000;fill-opacity:1;stroke:none;stroke-width:60;marker:none;visibility:visible;display:inline;overflow:visible;enable-background:accumulate;font-family:Sans;-inkscape-font-specification:Sans"
       d="m 22150,117.36218 c -44.375,0 -88.859,9.15748 -125.125,30.3125 -36.266,21.15502 -64.875,58.25893 -64.875,104.6875 a 30.003,30.003 0 1 0 60,0 c 0,-23.57143 11.391,-38.99877 35.125,-52.84375 23.734,-13.84498 59.25,-22.15625 94.875,-22.15625 35.625,0 71.141,8.31127 94.875,22.15625 22.53,13.14247 33.807,27.80001 34.906,49.40625 l -152.406,533.4375 -137.375,0 a 30.003,30.003 0 1 0 0,60 l 153.906,0 a 30.003,30.003 0 0 0 11.719,0 l 194.375,0 a 30.003,30.003 0 1 0 0,-60 l -160.25,0 149.094,-521.78125 a 30.003,30.003 0 0 0 1.156,-8.21875 c 0,-46.42857 -28.609,-83.53248 -64.875,-104.6875 -36.266,-21.15502 -80.75,-30.3125 -125.125,-30.3125 z"
       id="4"
       inkscape:label="#path4029"
       inkscape:connector-curvature="0" />
    <path
       style="font-size:medium;font-style:normal;font-variant:normal;font-weight:normal;font-stretch:normal;text-indent:0;text-align:start;text-decoration:none;line-height:normal;letter-spacing:normal;word-spacing:normal;text-transform:none;direction:ltr;block-progression:tb;writing-mode:lr-tb;text-anchor:start;baseline-shift:baseline;color:#000000;fill:#000000;fill-opacity:1;stroke:none;stroke-width:60;marker:none;visibility:visible;display:inline;overflow:visible;enable-background:accumulate;font-family:Sans;-inkscape-font-specification:Sans"
       d="m 22670,122.36218 c -51.667,0 -103.75,17.06432 -143.688,52.5625 -39.935,35.49818 -66.312,89.9375 -66.312,157.4375 a 30.003,30.003 0 1 0 60,0 c 0,-52.5 18.623,-88.09193 46.188,-112.59375 27.564,-24.50182 65.479,-37.40625 103.812,-37.40625 38.333,0 76.25,12.90443 103.812,37.40625 27.565,24.50182 46.188,60.09375 46.188,112.59375 l 0,150 0,20 -150,0 a 30.003,30.003 0 1 0 0,60 l 180,0 a 30.003,30.003 0 0 0 30,-30 l 0,-20 0,-30 0,-150 c 0,-67.5 -26.377,-121.93932 -66.312,-157.4375 -39.936,-35.49818 -92.021,-52.5625 -143.688,-52.5625 z m -180,280 a 30.003,30.003 0 0 0 -30,30 l 0,20 0,20 0,160 c 0,67.5 26.377,121.90807 66.312,157.40625 39.936,35.49818 92.021,52.59375 143.688,52.59375 51.667,0 103.75,-17.09557 143.688,-52.59375 39.935,-35.49818 66.312,-89.90625 66.312,-157.40625 a 30.003,30.003 0 1 0 -60,0 c 0,52.5 -18.623,88.06068 -46.188,112.5625 -27.564,24.50182 -65.479,37.4375 -103.812,37.4375 -38.333,0 -76.25,-12.93568 -103.812,-37.4375 -27.565,-24.50182 -46.188,-60.0625 -46.188,-112.5625 l 0,-160 0,-10 150,0 a 30.003,30.003 0 1 0 0,-60 l -180,0 z"
       id="5"
       inkscape:label="#2-9"
       inkscape:connector-curvature="0" />
    <path
       style="font-size:medium;font-style:normal;font-variant:normal;font-weight:normal;font-stretch:normal;text-indent:0;text-align:start;text-decoration:none;line-height:normal;letter-spacing:normal;word-spacing:normal;text-transform:none;direction:ltr;block-progression:tb;writing-mode:lr-tb;text-anchor:start;baseline-shift:baseline;color:#000000;fill:#000000;fill-opacity:1;stroke:none;stroke-width:60;marker:none;visibility:visible;display:inline;overflow:visible;enable-background:accumulate;font-family:Sans;-inkscape-font-specification:Sans"
       d="m 23279.562,121.92468 a 30.003,30.003 0 0 0 -29.562,30.4375 l 0,172.84375 c -31.738,5.66969 -62.785,20.17649 -90,43.5625 -95.619,82.16585 -118.103,237.72997 -55.906,355.90625 a 30.003,30.003 0 0 0 1.094,1.9375 30.003,30.003 0 0 0 1.062,2.09375 c 31.584,57.62899 79.957,96.14512 133.906,108.96875 53.949,12.82363 112.666,-1.17797 159.844,-41.71875 95.619,-82.16585 118.103,-237.72997 55.906,-355.90625 -31.098,-59.08814 -79.582,-98.87655 -134.031,-112.5 -3.936,-0.98492 -7.892,-1.83152 -11.875,-2.53125 l 0,-172.65625 a 30.003,30.003 0 0 0 -30.438,-30.4375 z m -4.937,260.375 a 30.003,30.003 0 0 0 10.156,0.0625 c 7.549,0.38251 15.083,1.51129 22.531,3.375 35.967,8.99884 71.123,35.93131 95.5,82.25 48.757,92.63738 27.46,222.86185 -41.906,282.46875 -34.214,29.40072 -71.293,37.30148 -106.875,28.84375 -35.582,-8.45773 -70.475,-34.40416 -95.156,-79.4375 a 30.003,30.003 0 0 0 -0.75,-1.25 30.003,30.003 0 0 0 0,-0.0313 30.003,30.003 0 0 0 -0.937,-1.84375 c -48.757,-92.63738 -27.46,-222.86185 41.906,-282.46875 24.277,-20.86168 49.969,-30.90986 75.531,-31.96875 z"
       id="6"
       inkscape:label="#path3924-5-1"
       inkscape:connector-curvature="0" />
    <path
       style="font-size:medium;font-style:normal;font-variant:normal;font-weight:normal;font-stretch:normal;text-indent:0;text-align:start;text-decoration:none;line-height:normal;letter-spacing:normal;word-spacing:normal;text-transform:none;direction:ltr;block-progression:tb;writing-mode:lr-tb;text-anchor:start;baseline-shift:baseline;color:#000000;fill:#000000;fill-opacity:1;stroke:none;stroke-width:60;marker:none;visibility:visible;display:inline;overflow:visible;enable-background:accumulate;font-family:Sans;-inkscape-font-specification:Sans"
       d="m 23695.906,117.36218 c -35.833,0 -72.031,10.10375 -100.906,32.5625 -28.876,22.45875 -49.094,58.86607 -49.094,102.4375 a 30.003,30.003 0 1 0 60,0 c 0,-26.42857 9.782,-42.5525 25.906,-55.09375 16.125,-12.54125 39.927,-19.90625 64.094,-19.90625 24.167,0 47.969,7.365 64.094,19.90625 16.124,12.54125 25.906,28.66518 25.906,55.09375 l 0,560 a 30.003,30.003 0 1 0 60,0 l 0,-560 c 0,-26.42857 9.782,-42.5525 25.906,-55.09375 16.125,-12.54125 39.927,-19.90625 64.094,-19.90625 24.167,0 47.969,7.365 64.094,19.90625 16.124,12.54125 25.906,28.66518 25.906,55.09375 a 30.003,30.003 0 1 0 60,0 c 0,-43.57143 -20.218,-79.97875 -49.094,-102.4375 -28.875,-22.45875 -65.073,-32.5625 -100.906,-32.5625 -35.833,0 -72.031,10.10375 -100.906,32.5625 -6.916,5.37914 -13.33,11.58248 -19.094,18.46875 -5.764,-6.88627 -12.178,-13.08961 -19.094,-18.46875 -28.875,-22.45875 -65.073,-32.5625 -100.906,-32.5625 z"
       id="7"
       inkscape:label="#path4117"
       inkscape:connector-curvature="0" />
    <path
       style="font-size:medium;font-style:normal;font-variant:normal;font-weight:normal;font-stretch:normal;text-indent:0;text-align:start;text-decoration:none;line-height:normal;letter-spacing:normal;word-spacing:normal;text-transform:none;direction:ltr;block-progression:tb;writing-mode:lr-tb;text-anchor:start;baseline-shift:baseline;color:#000000;fill:#000000;fill-opacity:1;stroke:none;stroke-width:60;marker:none;visibility:visible;display:inline;overflow:visible;enable-background:accumulate;font-family:Sans;-inkscape-font-specification:Sans"
       d="m 24249.562,121.92468 a 30.003,30.003 0 0 0 -29.562,30.4375 l 0,320 a 30.003,30.003 0 0 0 30,30 l 350,0 0,310 a 30.003,30.003 0 1 0 60,0 l 0,-340 a 30.003,30.003 0 0 0 -30,-30 l -350,0 0,-290 a 30.003,30.003 0 0 0 -30.438,-30.4375 z"
       id="8"
       inkscape:label="#path4151"
       inkscape:connector-curvature="0" />
    <path
       style="font-size:medium;font-style:normal;font-variant:normal;font-weight:normal;font-stretch:normal;text-indent:0;text-align:start;text-decoration:none;line-height:normal;letter-spacing:normal;word-spacing:normal;text-transform:none;direction:ltr;block-progression:tb;writing-mode:lr-tb;text-anchor:start;baseline-shift:baseline;color:#000000;fill:#000000;fill-opacity:1;stroke:none;stroke-width:60;marker:none;visibility:visible;display:inline;overflow:visible;enable-background:accumulate;font-family:Sans;-inkscape-font-specification:Sans"
       d="m 24992.062,122.36218 c -67.04,0.60753 -133.551,33.65723 -184,95.53125 a 30.003,30.003 0 1 0 46.5,37.90625 c 43.742,-53.64757 96.338,-76.07004 147.563,-73.21875 51.224,2.85129 103.044,31.41148 143.594,90.1875 14.898,21.59532 27.447,46.38879 37,73.5 a 30.003,30.003 0 0 0 1.062,2.6875 l 0,75.09375 c -44.124,-52.30637 -106.682,-80.69892 -170.094,-81.03125 -44.763,-0.2346 -89.924,13.49634 -129.344,42.65625 -105.115,77.75975 -131.893,230.976 -62.124,345.09375 a 30.003,30.003 0 0 0 1.156,1.71875 30.003,30.003 0 0 0 1.281,2.1875 c 70.807,111.22228 214.835,141.1079 318.563,64.375 45.592,-33.72716 76.462,-81.63572 91.093,-134.40625 a 30.003,30.003 0 0 0 9.469,-22.28125 l 0,-37.65625 c 0.362,-8.11189 0.37,-16.23226 0,-24.375 l 0,-237.96875 a 30.003,30.003 0 0 0 -4.531,-16.25 c -11.194,-31.71657 -26.017,-61.18975 -44.125,-87.4375 -49.186,-71.29549 -118.146,-112.01948 -189.656,-116 -4.471,-0.24878 -8.937,-0.353 -13.407,-0.3125 z m 22.281,279.28125 c 53.802,-0.0915 106.367,28.88745 139.813,83.59375 53.513,87.53009 31.607,207.71354 -46.594,265.5625 -77.145,57.06821 -178.088,36.83145 -232.312,-48.34375 a 30.003,30.003 0 0 0 -0.75,-1.125 30.003,30.003 0 0 0 -0.03,-0.0313 30.003,30.003 0 0 0 -1.063,-1.8125 c -53.513,-87.53009 -31.607,-207.71354 46.594,-265.5625 29.325,-21.69336 62.063,-32.22637 94.343,-32.28125 z"
       id="9"
       inkscape:label="#path4162"
       inkscape:connector-curvature="0" />
    <path
       id="h"
       style="font-size:medium;font-style:normal;font-variant:normal;font-weight:normal;font-stretch:normal;text-indent:0;text-align:start;text-decoration:none;line-height:normal;letter-spacing:normal;word-spacing:normal;text-transform:none;direction:ltr;block-progression:tb;writing-mode:lr-tb;text-anchor:start;baseline-shift:baseline;color:#000000;fill:#000000;fill-opacity:1;stroke:none;stroke-width:60;marker:none;visibility:visible;display:inline;overflow:visible;enable-background:accumulate;font-family:Sans;-inkscape-font-specification:Sans"
       d="m 4741.562,423.67468 c 56.906,-2.04342 114.319,21.99956 154,70.84375 A 30.003,30.003 0 1 1 4849,532.36218 c -50.384,-62.0176 -132.463,-67.34989 -189,-12.78125 -56.538,54.56862 -62.071,151.57612 -11.688,213.59372 50.384,62.0176 132.463,67.3499 189,12.7813 2.177,-2.1005 4.288,-4.3066 6.344,-6.5625 a 30.00659,30.00659 0 0 1 44.344,40.4375 c -2.915,3.199 -5.927,6.2848 -9.032,9.2812 -80.027,77.2402 -206.673,68.7404 -277.218,-18.0937 -70.545,-86.8341 -63.434,-217.35363 16.594,-294.59377 35.011,-33.79256 78.958,-51.16067 123.218,-52.75 z"
       inkscape:connector-curvature="0" />
    <path
       id="c"
       style="font-size:medium;font-style:normal;font-variant:normal;font-weight:normal;font-stretch:normal;text-indent:0;text-align:start;text-decoration:none;line-height:normal;letter-spacing:normal;word-spacing:normal;text-transform:none;direction:ltr;block-progression:tb;writing-mode:lr-tb;text-anchor:start;baseline-shift:baseline;color:#000000;fill:#000000;fill-opacity:1;stroke:none;stroke-width:60;marker:none;visibility:visible;display:inline;overflow:visible;enable-background:accumulate;font-family:Sans;-inkscape-font-specification:Sans"
       d="m 2502.1875,422.45593 c -57.4512,0.21617 -112.4326,33.55405 -137.0625,89.25 a 30.003,30.003 0 1 0 54.875,24.25 c 20.2467,-45.78398 72.9349,-66.15292 118.7187,-45.90625 45.7841,20.24667 66.153,72.93477 45.9063,118.71875 -14.5594,32.92331 -47.1275,53.91371 -83.125,53.59375 a 30.003,30.003 0 1 0 -0.5313,60 c 9.8563,0.0876 19.571,-0.81155 29.0313,-2.59375 a 30.003,30.003 0 0 0 4.2813,1.53125 c 59.8933,16.60217 103.3837,95.18308 87.9687,176.75 -15.415,81.56695 -77.0129,125.78962 -136.9063,109.18752 -40.3782,-11.19274 -75.6222,-50.62567 -87.2187,-105.34377 a 30.003,30.003 0 1 0 -58.6875,12.4375 c 15.4966,73.1208 64.0224,132.49587 129.875,150.75007 96.8785,26.8542 191.4394,-47.6072 211.9062,-155.90632 16.6721,-88.21859 -16.3935,-177.96448 -81.5937,-222.71875 16.8221,-14.33136 30.5905,-32.4423 39.875,-53.4375 33.3612,-75.44002 -1.0911,-164.48253 -76.5313,-197.84375 -18.86,-8.3403 -38.5528,-12.43481 -58.0312,-12.71875 -0.9131,-0.0133 -1.8381,-0.003 -2.75,0 z" />
    <path
       sodipodi:type="arc"
       style="fill:none;stroke:#000000;stroke-width:60;stroke-linecap:round;stroke-linejoin:round;stroke-miterlimit:4;stroke-opacity:1;stroke-dasharray:none;stroke-dashoffset:0"
       id="path3060-6"
       sodipodi:cx="2680"
       sodipodi:cy="600"
       sodipodi:rx="120"
       sodipodi:ry="120"
       d="m 2570.2523,551.46717 c 26.8039,-60.612 97.6685,-88.01884 158.2805,-61.2149 60.612,26.80395 88.0189,97.66857 61.2149,158.28056 -19.3689,43.79905 -62.9255,71.88808 -110.8143,71.46243"
       transform="translate(-79.999971,932.36218)"
       sodipodi:start="3.5579594"
       sodipodi:end="7.8628698"
       sodipodi:open="true" />
    <path
       sodipodi:type="arc"
       style="fill:none;stroke:#000000;stroke-width:60;stroke-linecap:round;stroke-linejoin:round;stroke-miterlimit:4;stroke-opacity:1;stroke-dasharray:none;stroke-dashoffset:0"
       id="path3062-7"
       sodipodi:cx="2620"
       sodipodi:cy="960"
       sodipodi:rx="145.6004"
       sodipodi:ry="176.33627"
       d="m 2652.485,788.1086 c 78.3859,21.72824 127.3862,116.30085 109.4453,211.23385 -17.941,94.93305 -96.0293,154.27715 -174.4153,132.54895 -53.1154,-14.7234 -94.9975,-64.1327 -108.544,-128.0522"
       transform="translate(-12.484971,864.25358)"
       sodipodi:start="4.9373931"
       sodipodi:end="9.1735315"
       sodipodi:open="true" />
  </g>
</svg>
